<?xml version="1.0" encoding="utf-8"?>
<svg xmlns="http://www.w3.org/2000/svg" xmlns:xlink="http://www.w3.org/1999/xlink" width="600" height="400" viewBox="0 0 2400 1600">
<defs>
  <clipPath id="clip640">
    <rect x="0" y="0" width="2400" height="1600"/>
  </clipPath>
</defs>
<path clip-path="url(#clip640)" d="
M0 1600 L2400 1600 L2400 0 L0 0  Z
  " fill="#f5f5f5" fill-rule="evenodd" fill-opacity="1"/>
<defs>
  <clipPath id="clip641">
    <rect x="480" y="0" width="1681" height="1600"/>
  </clipPath>
</defs>
<defs>
  <clipPath id="clip642">
    <rect x="78" y="198" width="2244" height="1130"/>
  </clipPath>
</defs>
<path clip-path="url(#clip640)" d="
M78.7402 1326.88 L2321.26 1326.88 L2321.26 198.168 L78.7402 198.168  Z
  " fill="#f5f5f5" fill-rule="evenodd" fill-opacity="1"/>
<polyline clip-path="url(#clip640)" style="stroke:#000000; stroke-linecap:butt; stroke-linejoin:round; stroke-width:4; stroke-opacity:1; fill:none" points="
  78.7402,1326.88 2321.26,1326.88 
  "/>
<polyline clip-path="url(#clip640)" style="stroke:#000000; stroke-linecap:butt; stroke-linejoin:round; stroke-width:4; stroke-opacity:1; fill:none" points="
  142.208,1326.88 142.208,1307.99 
  "/>
<polyline clip-path="url(#clip640)" style="stroke:#000000; stroke-linecap:butt; stroke-linejoin:round; stroke-width:4; stroke-opacity:1; fill:none" points="
  494.805,1326.88 494.805,1307.99 
  "/>
<polyline clip-path="url(#clip640)" style="stroke:#000000; stroke-linecap:butt; stroke-linejoin:round; stroke-width:4; stroke-opacity:1; fill:none" points="
  847.403,1326.88 847.403,1307.99 
  "/>
<polyline clip-path="url(#clip640)" style="stroke:#000000; stroke-linecap:butt; stroke-linejoin:round; stroke-width:4; stroke-opacity:1; fill:none" points="
  1200,1326.88 1200,1307.99 
  "/>
<polyline clip-path="url(#clip640)" style="stroke:#000000; stroke-linecap:butt; stroke-linejoin:round; stroke-width:4; stroke-opacity:1; fill:none" points="
  1552.6,1326.88 1552.6,1307.99 
  "/>
<polyline clip-path="url(#clip640)" style="stroke:#000000; stroke-linecap:butt; stroke-linejoin:round; stroke-width:4; stroke-opacity:1; fill:none" points="
  1905.19,1326.88 1905.19,1307.99 
  "/>
<polyline clip-path="url(#clip640)" style="stroke:#000000; stroke-linecap:butt; stroke-linejoin:round; stroke-width:4; stroke-opacity:1; fill:none" points="
  2257.79,1326.88 2257.79,1307.99 
  "/>
<path clip-path="url(#clip640)" d="M142.208 1366.59 Q135.888 1366.59 132.688 1372.83 Q129.528 1379.03 129.528 1391.5 Q129.528 1403.94 132.688 1410.18 Q135.888 1416.38 142.208 1416.38 Q148.568 1416.38 151.727 1410.18 Q154.928 1403.94 154.928 1391.5 Q154.928 1379.03 151.727 1372.83 Q148.568 1366.59 142.208 1366.59 M142.208 1360.11 Q152.375 1360.11 157.723 1368.17 Q163.11 1376.19 163.11 1391.5 Q163.11 1406.78 157.723 1414.84 Q152.375 1422.86 142.208 1422.86 Q132.04 1422.86 126.652 1414.84 Q121.305 1406.78 121.305 1391.5 Q121.305 1376.19 126.652 1368.17 Q132.04 1360.11 142.208 1360.11 Z" fill="#000000" fill-rule="evenodd" fill-opacity="1" /><path clip-path="url(#clip640)" d="M477.974 1414.8 L491.342 1414.8 L491.342 1368.66 L476.799 1371.57 L476.799 1364.12 L491.261 1361.2 L499.443 1361.2 L499.443 1414.8 L512.811 1414.8 L512.811 1421.68 L477.974 1421.68 L477.974 1414.8 Z" fill="#000000" fill-rule="evenodd" fill-opacity="1" /><path clip-path="url(#clip640)" d="M838.045 1414.8 L866.604 1414.8 L866.604 1421.68 L828.201 1421.68 L828.201 1414.8 Q832.86 1409.98 840.881 1401.87 Q848.942 1393.73 851.008 1391.38 Q854.937 1386.97 856.477 1383.93 Q858.056 1380.85 858.056 1377.89 Q858.056 1373.07 854.654 1370.03 Q851.291 1367 845.863 1367 Q842.015 1367 837.721 1368.33 Q833.467 1369.67 828.606 1372.38 L828.606 1364.12 Q833.548 1362.14 837.842 1361.12 Q842.136 1360.11 845.701 1360.11 Q855.099 1360.11 860.69 1364.81 Q866.28 1369.51 866.28 1377.37 Q866.28 1381.09 864.862 1384.46 Q863.485 1387.78 859.798 1392.31 Q858.786 1393.49 853.357 1399.12 Q847.929 1404.71 838.045 1414.8 Z" fill="#000000" fill-rule="evenodd" fill-opacity="1" /><path clip-path="url(#clip640)" d="M1207.43 1389.07 Q1213.31 1390.33 1216.59 1394.3 Q1219.91 1398.27 1219.91 1404.1 Q1219.91 1413.06 1213.75 1417.96 Q1207.6 1422.86 1196.25 1422.86 Q1192.45 1422.86 1188.39 1422.09 Q1184.38 1421.36 1180.09 1419.86 L1180.09 1411.96 Q1183.49 1413.95 1187.54 1414.96 Q1191.59 1415.97 1196.01 1415.97 Q1203.71 1415.97 1207.72 1412.93 Q1211.77 1409.9 1211.77 1404.1 Q1211.77 1398.76 1208 1395.76 Q1204.27 1392.72 1197.59 1392.72 L1190.54 1392.72 L1190.54 1386 L1197.91 1386 Q1203.95 1386 1207.15 1383.61 Q1210.35 1381.17 1210.35 1376.64 Q1210.35 1371.98 1207.03 1369.51 Q1203.75 1367 1197.59 1367 Q1194.23 1367 1190.38 1367.73 Q1186.53 1368.45 1181.91 1369.99 L1181.91 1362.7 Q1186.57 1361.41 1190.62 1360.76 Q1194.71 1360.11 1198.32 1360.11 Q1207.64 1360.11 1213.06 1364.36 Q1218.49 1368.58 1218.49 1375.79 Q1218.49 1380.81 1215.62 1384.29 Q1212.74 1387.74 1207.43 1389.07 Z" fill="#000000" fill-rule="evenodd" fill-opacity="1" /><path clip-path="url(#clip640)" d="M1557.86 1368.33 L1537.2 1400.62 L1557.86 1400.62 L1557.86 1368.33 M1555.72 1361.2 L1566.01 1361.2 L1566.01 1400.62 L1574.63 1400.62 L1574.63 1407.42 L1566.01 1407.42 L1566.01 1421.68 L1557.86 1421.68 L1557.86 1407.42 L1530.56 1407.42 L1530.56 1399.53 L1555.72 1361.2 Z" fill="#000000" fill-rule="evenodd" fill-opacity="1" /><path clip-path="url(#clip640)" d="M1888.18 1361.2 L1920.3 1361.2 L1920.3 1368.09 L1895.68 1368.09 L1895.68 1382.92 Q1897.46 1382.31 1899.24 1382.03 Q1901.02 1381.7 1902.8 1381.7 Q1912.93 1381.7 1918.85 1387.25 Q1924.76 1392.8 1924.76 1402.28 Q1924.76 1412.04 1918.68 1417.47 Q1912.61 1422.86 1901.55 1422.86 Q1897.74 1422.86 1893.77 1422.21 Q1889.84 1421.56 1885.63 1420.27 L1885.63 1412.04 Q1889.27 1414.03 1893.16 1415 Q1897.05 1415.97 1901.39 1415.97 Q1908.4 1415.97 1912.49 1412.29 Q1916.58 1408.6 1916.58 1402.28 Q1916.58 1395.96 1912.49 1392.27 Q1908.4 1388.59 1901.39 1388.59 Q1898.11 1388.59 1894.82 1389.32 Q1891.58 1390.05 1888.18 1391.59 L1888.18 1361.2 Z" fill="#000000" fill-rule="evenodd" fill-opacity="1" /><path clip-path="url(#clip640)" d="M2258.5 1388.18 Q2252.99 1388.18 2249.75 1391.95 Q2246.55 1395.72 2246.55 1402.28 Q2246.55 1408.8 2249.75 1412.61 Q2252.99 1416.38 2258.5 1416.38 Q2264.01 1416.38 2267.21 1412.61 Q2270.45 1408.8 2270.45 1402.28 Q2270.45 1395.72 2267.21 1391.95 Q2264.01 1388.18 2258.5 1388.18 M2274.75 1362.54 L2274.75 1369.99 Q2271.67 1368.54 2268.51 1367.77 Q2265.39 1367 2262.31 1367 Q2254.21 1367 2249.91 1372.47 Q2245.66 1377.93 2245.05 1388.99 Q2247.44 1385.47 2251.05 1383.61 Q2254.65 1381.7 2258.99 1381.7 Q2268.1 1381.7 2273.37 1387.25 Q2278.67 1392.76 2278.67 1402.28 Q2278.67 1411.6 2273.17 1417.23 Q2267.66 1422.86 2258.5 1422.86 Q2248.01 1422.86 2242.46 1414.84 Q2236.91 1406.78 2236.91 1391.5 Q2236.91 1377.16 2243.72 1368.66 Q2250.52 1360.11 2261.98 1360.11 Q2265.06 1360.11 2268.18 1360.72 Q2271.34 1361.33 2274.75 1362.54 Z" fill="#000000" fill-rule="evenodd" fill-opacity="1" /><path clip-path="url(#clip640)" d="M1246.98 1497.79 L1244.58 1518.52 Q1244.4 1520.4 1244.11 1520.98 Q1243.82 1521.51 1242.88 1521.51 Q1241.47 1521.51 1241.47 1520.1 Q1241.47 1519.52 1241.71 1517.94 Q1242.06 1514.72 1242.06 1511.44 Q1242.06 1507.75 1241.36 1505.46 Q1240.71 1503.12 1238.84 1501.42 Q1236.96 1499.73 1233.51 1499.02 Q1230.05 1498.26 1224.55 1498.26 L1208.74 1498.26 Q1204.88 1498.26 1203.94 1498.96 Q1203.06 1499.67 1202.24 1502.95 L1194.57 1533.39 L1205.46 1533.39 Q1213.07 1533.39 1216.06 1531.17 Q1219.05 1528.94 1220.92 1521.86 Q1221.21 1520.75 1221.33 1520.34 Q1221.51 1519.87 1221.8 1519.63 Q1222.15 1519.34 1222.74 1519.34 Q1223.26 1519.34 1223.61 1519.69 Q1223.96 1519.99 1224.08 1520.34 L1224.2 1520.69 Q1224.2 1521.27 1223.85 1522.62 L1217.23 1548.62 Q1216.76 1550.38 1216.47 1550.79 Q1216.24 1551.14 1215.42 1551.14 Q1214.83 1551.14 1214.42 1550.73 Q1214.01 1550.32 1214.01 1549.67 Q1214.13 1548.97 1214.36 1548.39 Q1215.18 1544.81 1215.18 1542.53 Q1215.18 1541.07 1214.89 1540.19 Q1214.6 1539.31 1213.6 1538.55 Q1212.61 1537.79 1210.56 1537.44 Q1208.51 1537.08 1205.23 1537.08 L1193.63 1537.08 L1186.2 1566.95 L1185.67 1569.7 Q1185.67 1570.93 1186.31 1571.4 Q1187.02 1571.87 1189.53 1572.1 Q1193.28 1572.39 1195.74 1572.39 Q1198.79 1572.39 1199.14 1572.51 Q1199.84 1572.86 1199.84 1573.8 Q1199.84 1574.85 1199.37 1575.44 Q1198.9 1575.97 1198.49 1576.02 Q1198.08 1576.08 1197.32 1576.08 L1179.46 1575.73 L1163.65 1576.08 Q1161.84 1576.08 1161.84 1574.62 Q1161.84 1573.51 1162.31 1573.04 Q1162.77 1572.51 1163.3 1572.45 Q1163.83 1572.39 1165.17 1572.39 Q1168.1 1572.39 1169.86 1572.22 Q1171.62 1572.04 1172.73 1571.81 Q1173.9 1571.51 1174.49 1570.7 Q1175.13 1569.88 1175.42 1569.17 Q1175.71 1568.41 1176.12 1566.71 L1191.93 1503.3 Q1192.52 1501.13 1192.52 1500.43 Q1192.52 1499.67 1191.99 1499.2 Q1191.52 1498.73 1190.24 1498.55 Q1188.95 1498.32 1187.89 1498.32 Q1186.9 1498.26 1184.73 1498.26 Q1183.33 1498.26 1182.74 1498.2 Q1182.21 1498.14 1181.8 1497.85 Q1181.39 1497.56 1181.39 1496.91 Q1181.39 1495.27 1182.1 1494.92 Q1182.86 1494.51 1184.97 1494.51 L1243.76 1494.51 Q1246.1 1494.51 1246.63 1495.04 Q1247.21 1495.51 1246.98 1497.79 Z" fill="#000000" fill-rule="evenodd" fill-opacity="1" /><path clip-path="url(#clip640)" d="M187.953 22.4683 L202.05 22.4683 L202.05 85.4541 Q202.05 102.121 208.092 109.482 Q214.133 116.773 227.675 116.773 Q241.147 116.773 247.189 109.482 Q253.23 102.121 253.23 85.4541 L253.23 22.4683 L267.327 22.4683 L267.327 87.1902 Q267.327 107.468 257.258 117.815 Q247.258 128.162 227.675 128.162 Q208.022 128.162 197.953 117.815 Q187.953 107.468 187.953 87.1902 L187.953 22.4683 Z" fill="#000000" fill-rule="evenodd" fill-opacity="1" /><path clip-path="url(#clip640)" d="M357.744 79.2042 L357.744 126.148 L344.966 126.148 L344.966 79.6208 Q344.966 68.5792 340.66 63.0931 Q336.355 57.607 327.744 57.607 Q317.397 57.607 311.424 64.2042 Q305.452 70.8014 305.452 82.1902 L305.452 126.148 L292.605 126.148 L292.605 48.371 L305.452 48.371 L305.452 60.4543 Q310.036 53.4404 316.216 49.9682 Q322.466 46.496 330.591 46.496 Q343.994 46.496 350.869 54.8293 Q357.744 63.0931 357.744 79.2042 Z" fill="#000000" fill-rule="evenodd" fill-opacity="1" /><path clip-path="url(#clip640)" d="M434.41 60.1765 L434.41 18.0934 L447.188 18.0934 L447.188 126.148 L434.41 126.148 L434.41 114.482 Q430.382 121.426 424.202 124.829 Q418.091 128.162 409.479 128.162 Q395.382 128.162 386.493 116.912 Q377.674 105.662 377.674 87.3291 Q377.674 68.9959 386.493 57.7459 Q395.382 46.496 409.479 46.496 Q418.091 46.496 424.202 49.8988 Q430.382 53.2321 434.41 60.1765 M390.868 87.3291 Q390.868 101.426 396.632 109.482 Q402.466 117.468 412.604 117.468 Q422.743 117.468 428.577 109.482 Q434.41 101.426 434.41 87.3291 Q434.41 73.232 428.577 65.2459 Q422.743 57.1904 412.604 57.1904 Q402.466 57.1904 396.632 65.2459 Q390.868 73.232 390.868 87.3291 Z" fill="#000000" fill-rule="evenodd" fill-opacity="1" /><path clip-path="url(#clip640)" d="M540.034 84.0652 L540.034 90.3152 L481.285 90.3152 Q482.118 103.51 489.201 110.454 Q496.354 117.329 509.062 117.329 Q516.423 117.329 523.298 115.523 Q530.243 113.718 537.048 110.107 L537.048 122.19 Q530.173 125.107 522.951 126.634 Q515.729 128.162 508.298 128.162 Q489.687 128.162 478.785 117.329 Q467.951 106.496 467.951 88.0235 Q467.951 68.9264 478.229 57.7459 Q488.576 46.496 506.076 46.496 Q521.771 46.496 530.868 56.6348 Q540.034 66.7042 540.034 84.0652 M527.257 80.3153 Q527.118 69.8292 521.354 63.5792 Q515.659 57.3293 506.215 57.3293 Q495.521 57.3293 489.062 63.3709 Q482.673 69.4125 481.701 80.3847 L527.257 80.3153 Z" fill="#000000" fill-rule="evenodd" fill-opacity="1" /><path clip-path="url(#clip640)" d="M606.076 60.3154 Q603.923 59.0654 601.353 58.5098 Q598.853 57.8848 595.798 57.8848 Q584.965 57.8848 579.131 64.9681 Q573.367 71.982 573.367 85.1763 L573.367 126.148 L560.52 126.148 L560.52 48.371 L573.367 48.371 L573.367 60.4543 Q577.395 53.371 583.854 49.9682 Q590.312 46.496 599.548 46.496 Q600.867 46.496 602.465 46.7043 Q604.062 46.8432 606.006 47.1904 L606.076 60.3154 Z" fill="#000000" fill-rule="evenodd" fill-opacity="1" /><path clip-path="url(#clip640)" d="M772.425 29.4605 Q772.425 31.4982 771.511 31.9198 Q770.668 32.3415 767.576 32.3415 Q762.306 32.3415 759.917 33.0441 Q757.598 33.6765 756.895 34.8008 Q756.263 35.8548 755.49 38.9466 L736.026 116.662 Q736.026 116.733 735.815 117.716 Q735.604 118.63 735.604 119.122 Q735.604 120.035 736.167 120.597 Q736.799 121.159 738.345 121.44 Q739.891 121.651 741.085 121.722 Q742.35 121.722 744.95 121.722 Q748.182 121.722 748.674 122.284 Q748.955 122.635 748.955 123.267 Q748.955 124.602 748.393 125.305 Q747.901 125.938 747.409 126.078 Q746.988 126.148 746.145 126.148 Q744.669 126.148 741.507 126.008 Q738.345 125.867 736.729 125.867 L727.524 125.727 L709.254 126.148 Q707.287 126.148 707.287 124.532 Q707.287 123.127 707.779 122.494 Q708.271 121.862 708.762 121.792 Q709.325 121.722 710.73 121.722 Q717.967 121.722 720.356 121.019 Q722.816 120.246 723.8 116.943 L733.707 77.2423 L689.86 77.2423 L680.023 116.662 Q680.023 116.733 679.812 117.716 Q679.601 118.63 679.601 119.122 Q679.601 120.035 680.164 120.597 Q680.796 121.159 682.342 121.44 Q683.888 121.651 685.082 121.722 Q686.347 121.722 688.947 121.722 Q692.179 121.722 692.741 122.284 Q693.022 122.635 693.022 123.267 Q693.022 124.251 692.741 124.954 Q692.531 125.586 691.968 125.797 Q691.477 126.008 691.125 126.078 Q690.774 126.148 690.142 126.148 Q688.666 126.148 685.504 126.008 Q682.412 125.867 680.796 125.867 L671.591 125.727 L653.321 126.148 Q651.284 126.148 651.284 124.532 Q651.284 123.127 651.776 122.565 Q652.267 121.932 652.9 121.862 Q653.532 121.722 655.148 121.722 Q658.662 121.722 660.77 121.511 Q662.878 121.3 664.213 121.019 Q665.618 120.667 666.321 119.684 Q667.094 118.7 667.445 117.857 Q667.797 116.943 668.288 114.906 L687.542 37.6115 Q688.104 35.2927 688.104 34.9413 Q688.104 33.6063 687.261 33.2549 Q686.488 32.8333 684.239 32.6225 L678.758 32.3415 Q677.072 32.3415 676.369 32.2712 Q675.737 32.2009 675.245 31.8496 Q674.753 31.4982 674.753 30.7253 Q674.753 29.7416 674.964 29.1092 Q675.245 28.4065 675.737 28.1957 Q676.229 27.9849 676.58 27.9146 Q676.931 27.8443 677.493 27.8443 L696.044 28.2659 L714.454 27.8443 Q716.492 27.8443 716.492 29.4605 Q716.492 31.4982 715.578 31.9198 Q714.665 32.3415 711.573 32.3415 Q706.444 32.3415 704.054 33.0441 Q701.665 33.6765 700.892 34.8008 Q700.19 35.9251 699.487 38.9466 L690.985 72.7452 L734.902 72.7452 L743.545 37.6115 Q744.107 35.0819 744.107 34.9413 Q744.107 33.6063 743.264 33.2549 Q742.491 32.8333 740.242 32.6225 L734.761 32.3415 Q733.075 32.3415 732.372 32.2712 Q731.74 32.2009 731.178 31.8496 Q730.686 31.4982 730.686 30.7253 Q730.686 29.7416 730.897 29.1092 Q731.178 28.4065 731.67 28.1957 Q732.161 27.9849 732.513 27.9146 Q732.864 27.8443 733.426 27.8443 L751.977 28.2659 L770.457 27.8443 Q772.425 27.8443 772.425 29.4605 Z" fill="#000000" fill-rule="evenodd" fill-opacity="1" /><path clip-path="url(#clip640)" d="M786.612 133.798 Q786.612 118.993 790.351 110.926 Q795.565 98.9243 807.861 98.9243 Q810.468 98.9243 813.173 99.6621 Q815.928 100.351 819.371 103.056 Q822.863 105.761 824.978 110.188 Q829.012 118.747 829.012 133.798 Q829.012 148.505 825.274 156.522 Q819.814 168.229 807.763 168.229 Q803.238 168.229 798.614 165.917 Q794.04 163.605 791.138 158.047 Q786.612 149.735 786.612 133.798 M794.974 132.568 Q794.974 147.767 796.056 153.817 Q797.286 160.359 800.631 163.212 Q804.025 166.016 807.763 166.016 Q811.796 166.016 815.141 163.015 Q818.535 159.966 819.568 153.424 Q820.699 146.98 820.65 132.568 Q820.65 118.55 819.666 112.943 Q818.338 106.401 814.797 103.794 Q811.304 101.138 807.763 101.138 Q806.435 101.138 805.008 101.531 Q803.631 101.925 801.615 103.056 Q799.598 104.187 798.024 106.991 Q796.499 109.795 795.761 114.025 Q794.974 119.485 794.974 132.568 Z" fill="#000000" fill-rule="evenodd" fill-opacity="1" /><path clip-path="url(#clip640)" d="M886.133 123.97 Q883.885 121.722 883.885 118.559 Q883.885 115.397 886.133 113.149 Q888.382 110.9 891.544 110.9 Q894.706 110.9 896.954 113.149 Q899.203 115.397 899.203 118.559 Q899.203 121.722 896.954 123.97 Q894.706 126.148 891.544 126.148 Q888.382 126.148 886.133 123.97 M886.133 77.172 Q883.885 74.9235 883.885 71.7614 Q883.885 68.5994 886.133 66.3508 Q888.382 64.1023 891.544 64.1023 Q894.706 64.1023 896.954 66.3508 Q899.203 68.5994 899.203 71.7614 Q899.203 74.9235 896.954 77.172 Q894.706 79.3503 891.544 79.3503 Q888.382 79.3503 886.133 77.172 Z" fill="#000000" fill-rule="evenodd" fill-opacity="1" /><path clip-path="url(#clip640)" d="M1065.44 40.1814 L1062.56 65.056 Q1062.35 67.3046 1061.99 68.0073 Q1061.64 68.6397 1060.52 68.6397 Q1058.83 68.6397 1058.83 66.9532 Q1058.83 66.2506 1059.11 64.3534 Q1059.53 60.4886 1059.53 56.5537 Q1059.53 52.1268 1058.69 49.3864 Q1057.92 46.5757 1055.67 44.538 Q1053.42 42.5002 1049.28 41.657 Q1045.13 40.7435 1038.52 40.7435 L1019.55 40.7435 Q1014.91 40.7435 1013.79 41.5867 Q1012.74 42.4299 1011.75 46.3649 L1002.55 82.9039 L1015.62 82.9039 Q1024.75 82.9039 1028.34 80.2338 Q1031.92 77.5636 1034.17 69.0613 Q1034.52 67.7262 1034.66 67.2343 Q1034.87 66.6722 1035.22 66.3911 Q1035.64 66.0398 1036.35 66.0398 Q1036.98 66.0398 1037.4 66.4614 Q1037.82 66.8127 1037.96 67.2343 L1038.1 67.6559 Q1038.1 68.3586 1037.68 69.9747 L1029.74 101.173 Q1029.18 103.281 1028.83 103.773 Q1028.55 104.195 1027.56 104.195 Q1026.86 104.195 1026.37 103.703 Q1025.88 103.211 1025.88 102.438 Q1026.02 101.595 1026.3 100.892 Q1027.28 96.6061 1027.28 93.8656 Q1027.28 92.1089 1026.93 91.0549 Q1026.58 90.0009 1025.38 89.0875 Q1024.19 88.174 1021.73 87.7524 Q1019.27 87.3308 1015.34 87.3308 L1001.42 87.3308 L992.5 123.167 L991.867 126.47 Q991.867 127.945 992.64 128.507 Q993.483 129.07 996.505 129.351 Q1001 129.702 1003.95 129.702 Q1007.61 129.702 1008.03 129.843 Q1008.87 130.264 1008.87 131.388 Q1008.87 132.653 1008.31 133.356 Q1007.75 133.988 1007.26 134.059 Q1006.76 134.129 1005.85 134.129 L984.419 133.707 L965.447 134.129 Q963.268 134.129 963.268 132.372 Q963.268 131.037 963.831 130.475 Q964.393 129.843 965.025 129.772 Q965.658 129.702 967.274 129.702 Q970.787 129.702 972.895 129.491 Q975.003 129.28 976.338 128.999 Q977.744 128.648 978.446 127.664 Q979.219 126.68 979.57 125.837 Q979.922 124.924 980.414 122.886 L999.386 46.7865 Q1000.09 44.1866 1000.09 43.3434 Q1000.09 42.4299 999.456 41.8678 Q998.894 41.3057 997.348 41.0949 Q995.802 40.8138 994.537 40.8138 Q993.343 40.7435 990.743 40.7435 Q989.057 40.7435 988.354 40.6733 Q987.722 40.603 987.23 40.2517 Q986.738 39.9003 986.738 39.1274 Q986.738 37.1599 987.581 36.7383 Q988.494 36.2464 991.024 36.2464 L1061.57 36.2464 Q1064.38 36.2464 1065.02 36.8788 Q1065.72 37.441 1065.44 40.1814 Z" fill="#000000" fill-rule="evenodd" fill-opacity="1" /><path clip-path="url(#clip640)" d="M1189.85 83.185 Q1189.43 96.1845 1185.56 103.422 Q1181.7 110.589 1172.78 113.54 Q1168.98 114.524 1166.31 114.524 Q1154.93 114.524 1139.82 100.892 Q1136.8 98.2222 1134.83 96.6061 Q1132.86 94.9899 1129.91 93.0927 Q1127.03 91.1252 1124.29 90.2117 Q1121.55 89.228 1118.81 89.228 Q1116.07 89.228 1114.31 89.9307 Q1106.44 92.5306 1102.44 97.9411 Q1098.5 103.281 1098.22 113.119 Q1098.22 113.822 1097.66 114.384 Q1097.1 114.876 1096.47 114.876 Q1095.76 114.876 1095.27 114.384 Q1094.78 113.892 1094.78 113.119 Q1095.2 100.119 1099.07 92.9522 Q1103 85.7146 1111.99 82.7634 Q1115.58 81.7796 1118.39 81.7796 Q1129.7 81.7796 1144.81 95.4115 Q1147.83 98.0817 1149.8 99.6978 Q1151.77 101.314 1154.65 103.281 Q1157.6 105.179 1160.34 106.162 Q1163.08 107.076 1165.82 107.076 Q1168.42 107.076 1170.46 106.373 Q1178.19 103.773 1182.12 98.433 Q1186.13 93.0224 1186.41 83.185 Q1186.41 82.4823 1186.97 81.9905 Q1187.53 81.4283 1188.16 81.4283 Q1188.87 81.4283 1189.36 81.9202 Q1189.85 82.4121 1189.85 83.185 Z" fill="#000000" fill-rule="evenodd" fill-opacity="1" /><path clip-path="url(#clip640)" d="M1347.04 40.1814 L1344.16 65.056 Q1343.95 67.3046 1343.6 68.0073 Q1343.25 68.6397 1342.12 68.6397 Q1340.44 68.6397 1340.44 66.9532 Q1340.44 66.2506 1340.72 64.3534 Q1341.14 60.4886 1341.14 56.5537 Q1341.14 52.1268 1340.29 49.3864 Q1339.52 46.5757 1337.27 44.538 Q1335.02 42.5002 1330.88 41.657 Q1326.73 40.7435 1320.13 40.7435 L1301.16 40.7435 Q1296.52 40.7435 1295.39 41.5867 Q1294.34 42.4299 1293.36 46.3649 L1284.15 82.9039 L1297.22 82.9039 Q1306.36 82.9039 1309.94 80.2338 Q1313.52 77.5636 1315.77 69.0613 Q1316.12 67.7262 1316.26 67.2343 Q1316.47 66.6722 1316.83 66.3911 Q1317.25 66.0398 1317.95 66.0398 Q1318.58 66.0398 1319 66.4614 Q1319.43 66.8127 1319.57 67.2343 L1319.71 67.6559 Q1319.71 68.3586 1319.28 69.9747 L1311.34 101.173 Q1310.78 103.281 1310.43 103.773 Q1310.15 104.195 1309.17 104.195 Q1308.46 104.195 1307.97 103.703 Q1307.48 103.211 1307.48 102.438 Q1307.62 101.595 1307.9 100.892 Q1308.89 96.6061 1308.89 93.8656 Q1308.89 92.1089 1308.53 91.0549 Q1308.18 90.0009 1306.99 89.0875 Q1305.79 88.174 1303.33 87.7524 Q1300.87 87.3308 1296.94 87.3308 L1283.03 87.3308 L1274.1 123.167 L1273.47 126.47 Q1273.47 127.945 1274.24 128.507 Q1275.09 129.07 1278.11 129.351 Q1282.61 129.702 1285.56 129.702 Q1289.21 129.702 1289.63 129.843 Q1290.48 130.264 1290.48 131.388 Q1290.48 132.653 1289.91 133.356 Q1289.35 133.988 1288.86 134.059 Q1288.37 134.129 1287.45 134.129 L1266.02 133.707 L1247.05 134.129 Q1244.87 134.129 1244.87 132.372 Q1244.87 131.037 1245.43 130.475 Q1246 129.843 1246.63 129.772 Q1247.26 129.702 1248.88 129.702 Q1252.39 129.702 1254.5 129.491 Q1256.61 129.28 1257.94 128.999 Q1259.35 128.648 1260.05 127.664 Q1260.82 126.68 1261.17 125.837 Q1261.53 124.924 1262.02 122.886 L1280.99 46.7865 Q1281.69 44.1866 1281.69 43.3434 Q1281.69 42.4299 1281.06 41.8678 Q1280.5 41.3057 1278.95 41.0949 Q1277.41 40.8138 1276.14 40.8138 Q1274.95 40.7435 1272.35 40.7435 Q1270.66 40.7435 1269.96 40.6733 Q1269.32 40.603 1268.83 40.2517 Q1268.34 39.9003 1268.34 39.1274 Q1268.34 37.1599 1269.18 36.7383 Q1270.1 36.2464 1272.63 36.2464 L1343.18 36.2464 Q1345.99 36.2464 1346.62 36.8788 Q1347.32 37.441 1347.04 40.1814 Z" fill="#000000" fill-rule="evenodd" fill-opacity="1" /><path clip-path="url(#clip640)" d="M1363.53 98.1519 Q1363.53 73.8394 1372.6 54.2349 Q1376.46 46.0136 1381.87 39.1274 Q1387.28 32.2412 1390.87 29.2197 Q1394.45 26.1982 1395.43 26.1982 Q1396.84 26.1982 1396.91 27.6035 Q1396.91 28.3062 1395.01 30.0629 Q1371.82 53.6727 1371.89 98.1519 Q1371.89 142.772 1394.45 165.468 Q1396.91 167.927 1396.91 168.7 Q1396.91 170.106 1395.43 170.106 Q1394.45 170.106 1391.01 167.225 Q1387.56 164.344 1382.22 157.739 Q1376.88 151.134 1373.02 143.053 Q1363.53 123.448 1363.53 98.1519 Z" fill="#000000" fill-rule="evenodd" fill-opacity="1" /><path clip-path="url(#clip640)" d="M1475.29 79.6014 Q1475.29 83.6066 1472.83 85.9957 Q1470.44 88.3848 1467.42 88.3848 Q1464.75 88.3848 1463.34 86.8389 Q1461.94 85.293 1461.94 83.3255 Q1461.94 82.4823 1462.29 81.4283 Q1462.64 80.304 1463.41 78.969 Q1464.26 77.6339 1466.01 76.6501 Q1467.77 75.6664 1470.16 75.5259 Q1469.67 75.034 1469.53 74.9637 Q1468.47 74.1205 1466.5 73.8394 Q1466.22 73.6989 1465.24 73.6989 Q1460.39 73.6989 1455.47 77.2825 Q1450.62 80.7959 1444.65 87.4713 Q1437.13 95.271 1432.28 98.1519 Q1453.58 100.963 1453.58 113.259 Q1453.58 115.297 1453.01 117.757 Q1451.89 122.394 1451.89 125.767 Q1451.89 132.513 1456.46 132.513 Q1460.88 132.513 1463.69 128.016 Q1466.57 123.518 1468.96 114.735 Q1469.32 113.119 1469.67 112.627 Q1470.02 112.135 1471 112.135 Q1472.76 112.135 1472.76 113.54 Q1471.14 121.762 1467.56 128.086 Q1462.99 135.745 1456.18 135.745 Q1450.48 135.745 1446.69 131.81 Q1442.96 127.805 1442.96 121.481 Q1442.96 119.935 1443.53 116.421 Q1443.95 115.016 1443.95 113.4 Q1443.95 110.097 1442.12 107.638 Q1440.29 105.108 1437.34 103.844 Q1434.39 102.579 1431.93 102.017 Q1429.54 101.384 1427.22 101.173 Q1420.2 130.897 1419.21 132.723 Q1418.58 133.988 1417.18 134.831 Q1415.77 135.745 1414.3 135.745 Q1412.89 135.745 1411.49 134.761 Q1410.15 133.848 1410.15 131.669 Q1410.15 130.545 1410.71 128.507 L1431.58 45.592 L1432 42.7813 Q1432 41.9381 1431.65 41.5165 Q1431.37 41.0246 1429.68 40.6733 Q1428.07 40.3219 1424.84 40.3219 Q1423.5 40.3219 1422.87 40.2517 Q1422.31 40.1814 1421.81 39.8301 Q1421.32 39.4084 1421.32 38.5652 Q1421.32 37.3707 1421.81 36.7383 Q1422.38 36.0356 1422.8 35.8951 Q1423.22 35.7545 1424.06 35.6843 Q1425.26 35.614 1429.26 35.2627 Q1433.27 34.8411 1436.71 34.56 Q1440.15 34.2789 1441.63 34.2789 Q1442.47 34.2789 1442.89 34.7005 Q1443.39 35.0519 1443.46 35.4735 L1443.53 35.8248 L1428.56 96.5358 Q1434.74 94.0764 1444.51 83.185 Q1455.82 70.5369 1465.52 70.5369 Q1470.09 70.5369 1472.69 73.3476 Q1475.29 76.088 1475.29 79.6014 Z" fill="#000000" fill-rule="evenodd" fill-opacity="1" /><path clip-path="url(#clip640)" d="M1486.45 131.81 Q1484.41 129.491 1484.41 126.47 Q1484.41 123.448 1486.38 121.2 Q1488.41 118.881 1492.07 118.881 Q1496.35 118.881 1498.81 123.027 Q1501.27 127.102 1501.27 133.988 Q1501.27 141.437 1498.25 148.323 Q1495.23 155.279 1492.28 158.582 Q1489.33 161.884 1488.13 161.884 Q1486.73 161.884 1486.73 160.339 Q1486.73 159.776 1487.71 158.722 Q1498.04 147.62 1498.11 133.988 Q1498.11 131.81 1497.83 131.81 L1497.48 132.091 Q1495.02 134.129 1492.07 134.129 Q1488.48 134.129 1486.45 131.81 Z" fill="#000000" fill-rule="evenodd" fill-opacity="1" /><path clip-path="url(#clip640)" d="M1624.68 113.54 Q1624.68 114.103 1624.05 116.281 Q1623.41 118.459 1621.87 121.832 Q1620.39 125.205 1618.35 128.297 Q1616.32 131.318 1612.94 133.567 Q1609.64 135.745 1605.85 135.745 Q1600.79 135.745 1597.41 132.372 Q1594.04 128.999 1594.04 123.94 Q1594.04 121.129 1595.52 117.265 Q1604.86 92.3197 1604.86 83.7471 Q1604.86 73.6989 1597.06 73.6989 Q1593.2 73.6989 1589.55 75.1745 Q1585.96 76.5799 1583.5 78.5474 Q1581.04 80.5148 1578.79 83.2553 Q1576.62 85.9254 1575.49 87.7524 Q1574.44 89.5091 1573.59 91.2657 L1571.77 98.433 Q1571.35 100.4 1569.31 108.06 L1566.15 121.059 Q1563.9 130.756 1563.41 131.669 Q1562.7 133.637 1561.16 134.691 Q1559.61 135.745 1558.07 135.745 Q1556.31 135.745 1555.11 134.691 Q1553.92 133.637 1553.92 131.81 Q1553.92 131.529 1554.13 130.475 Q1554.34 129.421 1554.69 127.945 Q1555.04 126.47 1555.18 125.626 L1563.55 92.39 Q1565.09 86.347 1565.44 84.4498 Q1565.86 82.4823 1565.86 80.304 Q1565.86 73.6989 1561.37 73.6989 Q1557.71 73.6989 1555.32 78.0555 Q1552.94 82.4121 1550.9 90.8441 Q1550.27 93.163 1549.84 93.6548 Q1549.49 94.1467 1548.44 94.1467 Q1546.68 94.0764 1546.68 92.6711 Q1546.68 92.3197 1547.24 90.0009 Q1547.81 87.6821 1548.86 84.3795 Q1549.98 81.0067 1551.04 78.7582 Q1551.95 77.0717 1552.44 76.2988 Q1553.01 75.4556 1554.34 73.8394 Q1555.75 72.153 1557.57 71.3801 Q1559.47 70.5369 1561.79 70.5369 Q1566.99 70.5369 1570.78 73.9097 Q1574.58 77.2123 1575.07 83.0445 Q1584.42 70.5369 1597.49 70.5369 Q1605.21 70.5369 1609.64 74.6124 Q1614.07 78.6879 1614.07 85.9254 Q1614.07 87.6118 1613.72 89.7901 Q1613.44 91.8981 1612.73 94.5683 Q1612.1 97.2385 1611.54 99.2762 Q1610.98 101.314 1609.85 104.617 Q1608.73 107.849 1608.24 109.254 Q1607.74 110.66 1606.55 113.962 Q1605.43 117.194 1605.28 117.546 Q1602.69 124.081 1602.69 127.805 Q1602.69 130.264 1603.46 131.388 Q1604.3 132.513 1606.13 132.513 Q1611.05 132.513 1614.7 127.664 Q1618.42 122.746 1620.81 114.735 Q1621.38 112.978 1621.66 112.557 Q1622.01 112.135 1622.99 112.135 Q1624.68 112.135 1624.68 113.54 Z" fill="#000000" fill-rule="evenodd" fill-opacity="1" /><path clip-path="url(#clip640)" d="M1767.07 96.1142 Q1767.91 96.9574 1767.91 98.1519 Q1767.91 99.3465 1767.07 100.19 Q1766.23 101.033 1765.03 101.033 L1674.95 101.033 Q1673.75 101.033 1672.91 100.19 Q1672.07 99.3465 1672.07 98.1519 Q1672.07 96.9574 1672.91 96.1142 Q1673.75 95.271 1674.95 95.271 L1765.03 95.271 Q1766.23 95.271 1767.07 96.1142 Z" fill="#000000" fill-rule="evenodd" fill-opacity="1" /><path clip-path="url(#clip640)" d="M1887.99 79.6014 Q1887.99 83.6066 1885.54 85.9957 Q1883.15 88.3848 1880.12 88.3848 Q1877.45 88.3848 1876.05 86.8389 Q1874.64 85.293 1874.64 83.3255 Q1874.64 82.4823 1875 81.4283 Q1875.35 80.304 1876.12 78.969 Q1876.96 77.6339 1878.72 76.6501 Q1880.48 75.6664 1882.87 75.5259 Q1882.37 75.034 1882.23 74.9637 Q1881.18 74.1205 1879.21 73.8394 Q1878.93 73.6989 1877.95 73.6989 Q1873.1 73.6989 1868.18 77.2825 Q1863.33 80.7959 1857.36 87.4713 Q1849.84 95.271 1844.99 98.1519 Q1866.28 100.963 1866.28 113.259 Q1866.28 115.297 1865.72 117.757 Q1864.6 122.394 1864.6 125.767 Q1864.6 132.513 1869.16 132.513 Q1873.59 132.513 1876.4 128.016 Q1879.28 123.518 1881.67 114.735 Q1882.02 113.119 1882.37 112.627 Q1882.72 112.135 1883.71 112.135 Q1885.47 112.135 1885.47 113.54 Q1883.85 121.762 1880.27 128.086 Q1875.7 135.745 1868.88 135.745 Q1863.19 135.745 1859.4 131.81 Q1855.67 127.805 1855.67 121.481 Q1855.67 119.935 1856.23 116.421 Q1856.66 115.016 1856.66 113.4 Q1856.66 110.097 1854.83 107.638 Q1853 105.108 1850.05 103.844 Q1847.1 102.579 1844.64 102.017 Q1842.25 101.384 1839.93 101.173 Q1832.91 130.897 1831.92 132.723 Q1831.29 133.988 1829.88 134.831 Q1828.48 135.745 1827 135.745 Q1825.6 135.745 1824.19 134.761 Q1822.86 133.848 1822.86 131.669 Q1822.86 130.545 1823.42 128.507 L1844.29 45.592 L1844.71 42.7813 Q1844.71 41.9381 1844.36 41.5165 Q1844.08 41.0246 1842.39 40.6733 Q1840.77 40.3219 1837.54 40.3219 Q1836.21 40.3219 1835.58 40.2517 Q1835.01 40.1814 1834.52 39.8301 Q1834.03 39.4084 1834.03 38.5652 Q1834.03 37.3707 1834.52 36.7383 Q1835.08 36.0356 1835.5 35.8951 Q1835.93 35.7545 1836.77 35.6843 Q1837.96 35.614 1841.97 35.2627 Q1845.97 34.8411 1849.42 34.56 Q1852.86 34.2789 1854.34 34.2789 Q1855.18 34.2789 1855.6 34.7005 Q1856.09 35.0519 1856.16 35.4735 L1856.23 35.8248 L1841.27 96.5358 Q1847.45 94.0764 1857.22 83.185 Q1868.53 70.5369 1878.23 70.5369 Q1882.79 70.5369 1885.39 73.3476 Q1887.99 76.088 1887.99 79.6014 Z" fill="#000000" fill-rule="evenodd" fill-opacity="1" /><path clip-path="url(#clip640)" d="M2032.04 96.1142 Q2032.88 96.9574 2032.88 98.1519 Q2032.88 99.3465 2032.04 100.19 Q2031.2 101.033 2030 101.033 L1939.92 101.033 Q1938.72 101.033 1937.88 100.19 Q1937.04 99.3465 1937.04 98.1519 Q1937.04 96.9574 1937.88 96.1142 Q1938.72 95.271 1939.92 95.271 L2030 95.271 Q2031.2 95.271 2032.04 96.1142 Z" fill="#000000" fill-rule="evenodd" fill-opacity="1" /><path clip-path="url(#clip640)" d="M2087.83 51.9863 L2087.83 47.4892 Q2105.11 47.4892 2114.04 38.2842 Q2116.5 38.2842 2116.92 38.8463 Q2117.34 39.4084 2117.34 42.0083 L2117.34 122.746 Q2117.34 127.032 2119.45 128.367 Q2121.56 129.702 2130.76 129.702 L2135.33 129.702 L2135.33 134.129 Q2130.27 133.707 2112 133.707 Q2093.73 133.707 2088.74 134.129 L2088.74 129.702 L2093.31 129.702 Q2102.37 129.702 2104.55 128.437 Q2106.73 127.102 2106.73 122.746 L2106.73 48.1919 Q2099.21 51.9863 2087.83 51.9863 Z" fill="#000000" fill-rule="evenodd" fill-opacity="1" /><path clip-path="url(#clip640)" d="M2156.79 168.7 Q2156.79 167.998 2158.62 166.241 Q2181.8 142.631 2181.8 98.1519 Q2181.8 53.5322 2159.53 30.9764 Q2156.79 28.3765 2156.79 27.6035 Q2156.79 26.1982 2158.19 26.1982 Q2159.18 26.1982 2162.62 29.0791 Q2166.13 31.9601 2171.4 38.5652 Q2176.74 45.1704 2180.68 53.2511 Q2190.17 72.8557 2190.17 98.1519 Q2190.17 122.464 2181.1 142.069 Q2177.24 150.29 2171.83 157.176 Q2166.42 164.063 2162.83 167.084 Q2159.25 170.106 2158.19 170.106 Q2156.79 170.106 2156.79 168.7 Z" fill="#000000" fill-rule="evenodd" fill-opacity="1" /><path clip-path="url(#clip642)" d="
M1035.53 1192.22 L1039.06 1193.71 L1042.58 1195.18 L1046.11 1196.62 L1049.64 1198.04 L1053.16 1199.45 L1056.69 1200.83 L1060.21 1202.19 L1063.74 1203.53 L1067.27 1204.86 
  L1070.79 1206.16 L1074.32 1207.44 L1077.84 1208.71 L1081.37 1209.96 L1084.9 1211.19 L1088.42 1212.4 L1091.95 1213.59 L1095.47 1214.77 L1099 1215.93 L1102.53 1217.07 
  L1106.05 1218.19 L1109.58 1219.3 L1113.1 1220.39 L1116.63 1221.47 L1120.16 1222.53 L1123.68 1223.57 L1127.21 1224.6 L1130.73 1225.62 L1134.26 1226.62 L1137.79 1227.6 
  L1141.31 1228.57 L1144.84 1229.53 L1148.36 1230.47 L1151.89 1231.4 L1155.42 1232.32 L1158.94 1233.22 L1162.47 1234.11 L1165.99 1234.98 L1169.52 1235.84 L1173.05 1236.69 
  L1176.57 1237.53 L1180.1 1238.35 L1183.62 1239.17 L1187.15 1239.97 L1190.68 1240.76 L1194.2 1241.54 L1197.73 1242.3 L1201.25 1243.06 L1204.78 1243.8 L1208.31 1244.53 
  L1211.83 1245.26 L1215.36 1245.97 L1218.88 1246.67 L1222.41 1247.36 L1225.94 1248.04 L1229.46 1248.71 L1232.99 1249.37 L1236.51 1250.02 L1240.04 1250.66 L1243.57 1251.3 
  L1247.09 1251.92 L1250.62 1252.53 L1254.14 1253.14 L1257.67 1253.73 L1261.19 1254.32 L1264.72 1254.9 L1268.25 1255.47 L1271.77 1256.03 L1275.3 1256.58 L1278.82 1257.13 
  L1282.35 1257.67 L1285.88 1258.2 L1289.4 1258.72 L1292.93 1259.23 L1296.45 1259.74 L1299.98 1260.24 L1303.51 1260.73 L1307.03 1261.22 L1310.56 1261.69 L1314.08 1262.16 
  L1317.61 1262.63 L1321.14 1263.08 L1324.66 1263.54 L1328.19 1263.98 L1331.71 1264.42 L1335.24 1264.85 L1338.77 1265.27 L1342.29 1265.69 L1345.82 1266.1 L1349.34 1266.51 
  L1352.87 1266.91 L1356.4 1267.3 L1359.92 1267.69 L1363.45 1268.08 L1366.97 1268.45 L1370.5 1268.83 L1374.03 1269.19 L1377.55 1269.55 L1381.08 1269.91 L1384.6 1270.26 
  L1388.13 1270.61 L1391.66 1270.95 L1395.18 1271.28 L1398.71 1271.62 L1402.23 1271.94 L1405.76 1272.26 L1409.29 1272.58 L1412.81 1272.89 L1416.34 1273.2 L1419.86 1273.5 
  L1423.39 1273.8 L1426.92 1274.1 L1430.44 1274.39 L1433.97 1274.67 L1437.49 1274.95 L1441.02 1275.23 L1444.55 1275.51 L1448.07 1275.78 L1451.6 1276.04 L1455.12 1276.3 
  L1458.65 1276.56 L1462.18 1276.82 L1465.7 1277.07 L1469.23 1277.32 L1472.75 1277.56 L1476.28 1277.8 L1479.81 1278.04 L1483.33 1278.27 L1486.86 1278.5 L1490.38 1278.73 
  L1493.91 1278.95 L1497.44 1279.17 L1500.96 1279.39 L1504.49 1279.6 L1508.01 1279.81 L1511.54 1280.02 L1515.07 1280.23 L1518.59 1280.43 L1522.12 1280.63 L1525.64 1280.82 
  L1529.17 1281.02 L1532.69 1281.21 L1536.22 1281.4 L1539.75 1281.58 L1543.27 1281.77 L1546.8 1281.95 L1550.32 1282.12 L1553.85 1282.3 L1557.38 1282.47 L1560.9 1282.64 
  L1564.43 1282.81 L1567.95 1282.97 L1571.48 1283.14 L1575.01 1283.3 L1578.53 1283.46 L1582.06 1283.61 L1585.58 1283.77 L1589.11 1283.92 L1592.64 1284.07 L1596.16 1284.21 
  L1599.69 1284.36 L1603.21 1284.5 L1606.74 1284.64 L1610.27 1284.78 L1613.79 1284.92 L1617.32 1285.06 L1620.84 1285.19 L1624.37 1285.32 L1627.9 1285.45 L1631.42 1285.58 
  L1634.95 1285.7 L1638.47 1285.83 L1642 1285.95 L1645.53 1286.07 L1649.05 1286.19 L1652.58 1286.31 L1656.1 1286.42 L1659.63 1286.54 L1663.16 1286.65 L1666.68 1286.76 
  L1670.21 1286.87 L1673.73 1286.98 L1677.26 1287.09 L1680.79 1287.19 L1684.31 1287.29 L1687.84 1287.4 L1691.36 1287.5 L1694.89 1287.6 L1698.42 1287.69 L1701.94 1287.79 
  L1705.47 1287.89 L1708.99 1287.98 L1712.52 1288.07 L1716.05 1288.16 L1719.57 1288.25 L1723.1 1288.34 L1726.62 1288.43 L1730.15 1288.52 L1733.68 1288.6 L1737.2 1288.68 
  L1740.73 1288.77 L1744.25 1288.85 L1747.78 1288.93 L1751.31 1289.01 L1754.83 1289.09 L1758.36 1289.16 L1761.88 1289.24 L1765.41 1289.31 L1768.94 1289.39 L1772.46 1289.46 
  L1775.99 1289.53 L1779.51 1289.6 L1783.04 1289.67 L1786.57 1289.74 L1790.09 1289.81 L1793.62 1289.88 L1797.14 1289.95 L1800.67 1290.01 L1804.19 1290.07 L1807.72 1290.14 
  L1811.25 1290.2 L1814.77 1290.26 L1818.3 1290.32 L1821.82 1290.38 L1825.35 1290.44 L1828.88 1290.5 L1832.4 1290.56 L1835.93 1290.62 L1839.45 1290.67 L1842.98 1290.73 
  L1846.51 1290.78 L1850.03 1290.84 L1853.56 1290.89 L1857.08 1290.94 L1860.61 1290.99 L1864.14 1291.04 L1867.66 1291.1 L1871.19 1291.14 L1874.71 1291.19 L1878.24 1291.24 
  L1881.77 1291.29 L1885.29 1291.34 L1888.82 1291.38 L1892.34 1291.43 L1895.87 1291.47 L1899.4 1291.52 L1902.92 1291.56 L1906.45 1291.61 L1909.97 1291.65 L1913.5 1291.69 
  L1917.03 1291.73 L1920.55 1291.77 L1924.08 1291.81 L1927.6 1291.85 L1931.13 1291.89 L1934.66 1291.93 L1938.18 1291.97 L1941.71 1292.01 L1945.23 1292.05 L1948.76 1292.08 
  L1952.29 1292.12 L1955.81 1292.15 L1959.34 1292.19 L1962.86 1292.22 L1966.39 1292.26 L1969.92 1292.29 L1973.44 1292.33 L1976.97 1292.36 L1980.49 1292.39 L1984.02 1292.42 
  L1987.55 1292.46 L1991.07 1292.49 L1994.6 1292.52 L1998.12 1292.55 L2001.65 1292.58 L2005.18 1292.61 L2008.7 1292.64 L2012.23 1292.67 L2015.75 1292.7 L2019.28 1292.72 
  L2022.81 1292.75 L2026.33 1292.78 L2029.86 1292.81 L2033.38 1292.83 L2036.91 1292.86 L2040.44 1292.89 L2043.96 1292.91 L2047.49 1292.94 L2051.01 1292.96 L2054.54 1292.99 
  L2058.07 1293.01 L2061.59 1293.03 L2065.12 1293.06 L2068.64 1293.08 L2072.17 1293.1 L2075.69 1293.13 L2079.22 1293.15 L2082.75 1293.17 L2086.27 1293.19 L2089.8 1293.22 
  L2093.32 1293.24 L2096.85 1293.26 L2100.38 1293.28 L2103.9 1293.3 L2107.43 1293.32 L2110.95 1293.34 L2114.48 1293.36 L2118.01 1293.38 L2121.53 1293.4 L2125.06 1293.42 
  L2128.58 1293.44 L2132.11 1293.45 L2135.64 1293.47 L2139.16 1293.49 L2142.69 1293.51 L2146.21 1293.53 L2149.74 1293.54 L2153.27 1293.56 L2156.79 1293.58 L2160.32 1293.59 
  L2163.84 1293.61 L2167.37 1293.63 L2170.9 1293.64 L2174.42 1293.66 L2177.95 1293.67 L2181.47 1293.69 L2185 1293.7 L2188.53 1293.72 L2192.05 1293.73 L2195.58 1293.75 
  L2199.1 1293.76 L2202.63 1293.78 L2206.16 1293.79 L2209.68 1293.81 L2213.21 1293.82 L2216.73 1293.83 L2220.26 1293.85 L2223.79 1293.86 L2227.31 1293.87 L2230.84 1293.89 
  L2234.36 1293.9 L2237.89 1293.91 L2241.42 1293.92 L2244.94 1293.94 L2248.47 1293.95 L2251.99 1293.96 L2255.52 1293.97 L2255.52 1294.94 L2251.99 1294.94 L2248.47 1294.94 
  L2244.94 1294.94 L2241.42 1294.94 L2237.89 1294.94 L2234.36 1294.94 L2230.84 1294.94 L2227.31 1294.94 L2223.79 1294.94 L2220.26 1294.94 L2216.73 1294.94 L2213.21 1294.94 
  L2209.68 1294.94 L2206.16 1294.94 L2202.63 1294.94 L2199.1 1294.94 L2195.58 1294.94 L2192.05 1294.94 L2188.53 1294.94 L2185 1294.94 L2181.47 1294.94 L2177.95 1294.94 
  L2174.42 1294.94 L2170.9 1294.94 L2167.37 1294.94 L2163.84 1294.94 L2160.32 1294.94 L2156.79 1294.94 L2153.27 1294.94 L2149.74 1294.94 L2146.21 1294.94 L2142.69 1294.94 
  L2139.16 1294.94 L2135.64 1294.94 L2132.11 1294.94 L2128.58 1294.94 L2125.06 1294.94 L2121.53 1294.94 L2118.01 1294.94 L2114.48 1294.94 L2110.95 1294.94 L2107.43 1294.94 
  L2103.9 1294.94 L2100.38 1294.94 L2096.85 1294.94 L2093.32 1294.94 L2089.8 1294.94 L2086.27 1294.94 L2082.75 1294.94 L2079.22 1294.94 L2075.69 1294.94 L2072.17 1294.94 
  L2068.64 1294.94 L2065.12 1294.94 L2061.59 1294.94 L2058.07 1294.94 L2054.54 1294.94 L2051.01 1294.94 L2047.49 1294.94 L2043.96 1294.94 L2040.44 1294.94 L2036.91 1294.94 
  L2033.38 1294.94 L2029.86 1294.94 L2026.33 1294.94 L2022.81 1294.94 L2019.28 1294.94 L2015.75 1294.94 L2012.23 1294.94 L2008.7 1294.94 L2005.18 1294.94 L2001.65 1294.94 
  L1998.12 1294.94 L1994.6 1294.94 L1991.07 1294.94 L1987.55 1294.94 L1984.02 1294.94 L1980.49 1294.94 L1976.97 1294.94 L1973.44 1294.94 L1969.92 1294.94 L1966.39 1294.94 
  L1962.86 1294.94 L1959.34 1294.94 L1955.81 1294.94 L1952.29 1294.94 L1948.76 1294.94 L1945.23 1294.94 L1941.71 1294.94 L1938.18 1294.94 L1934.66 1294.94 L1931.13 1294.94 
  L1927.6 1294.94 L1924.08 1294.94 L1920.55 1294.94 L1917.03 1294.94 L1913.5 1294.94 L1909.97 1294.94 L1906.45 1294.94 L1902.92 1294.94 L1899.4 1294.94 L1895.87 1294.94 
  L1892.34 1294.94 L1888.82 1294.94 L1885.29 1294.94 L1881.77 1294.94 L1878.24 1294.94 L1874.71 1294.94 L1871.19 1294.94 L1867.66 1294.94 L1864.14 1294.94 L1860.61 1294.94 
  L1857.08 1294.94 L1853.56 1294.94 L1850.03 1294.94 L1846.51 1294.94 L1842.98 1294.94 L1839.45 1294.94 L1835.93 1294.94 L1832.4 1294.94 L1828.88 1294.94 L1825.35 1294.94 
  L1821.82 1294.94 L1818.3 1294.94 L1814.77 1294.94 L1811.25 1294.94 L1807.72 1294.94 L1804.19 1294.94 L1800.67 1294.94 L1797.14 1294.94 L1793.62 1294.94 L1790.09 1294.94 
  L1786.57 1294.94 L1783.04 1294.94 L1779.51 1294.94 L1775.99 1294.94 L1772.46 1294.94 L1768.94 1294.94 L1765.41 1294.94 L1761.88 1294.94 L1758.36 1294.94 L1754.83 1294.94 
  L1751.31 1294.94 L1747.78 1294.94 L1744.25 1294.94 L1740.73 1294.94 L1737.2 1294.94 L1733.68 1294.94 L1730.15 1294.94 L1726.62 1294.94 L1723.1 1294.94 L1719.57 1294.94 
  L1716.05 1294.94 L1712.52 1294.94 L1708.99 1294.94 L1705.47 1294.94 L1701.94 1294.94 L1698.42 1294.94 L1694.89 1294.94 L1691.36 1294.94 L1687.84 1294.94 L1684.31 1294.94 
  L1680.79 1294.94 L1677.26 1294.94 L1673.73 1294.94 L1670.21 1294.94 L1666.68 1294.94 L1663.16 1294.94 L1659.63 1294.94 L1656.1 1294.94 L1652.58 1294.94 L1649.05 1294.94 
  L1645.53 1294.94 L1642 1294.94 L1638.47 1294.94 L1634.95 1294.94 L1631.42 1294.94 L1627.9 1294.94 L1624.37 1294.94 L1620.84 1294.94 L1617.32 1294.94 L1613.79 1294.94 
  L1610.27 1294.94 L1606.74 1294.94 L1603.21 1294.94 L1599.69 1294.94 L1596.16 1294.94 L1592.64 1294.94 L1589.11 1294.94 L1585.58 1294.94 L1582.06 1294.94 L1578.53 1294.94 
  L1575.01 1294.94 L1571.48 1294.94 L1567.95 1294.94 L1564.43 1294.94 L1560.9 1294.94 L1557.38 1294.94 L1553.85 1294.94 L1550.32 1294.94 L1546.8 1294.94 L1543.27 1294.94 
  L1539.75 1294.94 L1536.22 1294.94 L1532.69 1294.94 L1529.17 1294.94 L1525.64 1294.94 L1522.12 1294.94 L1518.59 1294.94 L1515.07 1294.94 L1511.54 1294.94 L1508.01 1294.94 
  L1504.49 1294.94 L1500.96 1294.94 L1497.44 1294.94 L1493.91 1294.94 L1490.38 1294.94 L1486.86 1294.94 L1483.33 1294.94 L1479.81 1294.94 L1476.28 1294.94 L1472.75 1294.94 
  L1469.23 1294.94 L1465.7 1294.94 L1462.18 1294.94 L1458.65 1294.94 L1455.12 1294.94 L1451.6 1294.94 L1448.07 1294.94 L1444.55 1294.94 L1441.02 1294.94 L1437.49 1294.94 
  L1433.97 1294.94 L1430.44 1294.94 L1426.92 1294.94 L1423.39 1294.94 L1419.86 1294.94 L1416.34 1294.94 L1412.81 1294.94 L1409.29 1294.94 L1405.76 1294.94 L1402.23 1294.94 
  L1398.71 1294.94 L1395.18 1294.94 L1391.66 1294.94 L1388.13 1294.94 L1384.6 1294.94 L1381.08 1294.94 L1377.55 1294.94 L1374.03 1294.94 L1370.5 1294.94 L1366.97 1294.94 
  L1363.45 1294.94 L1359.92 1294.94 L1356.4 1294.94 L1352.87 1294.94 L1349.34 1294.94 L1345.82 1294.94 L1342.29 1294.94 L1338.77 1294.94 L1335.24 1294.94 L1331.71 1294.94 
  L1328.19 1294.94 L1324.66 1294.94 L1321.14 1294.94 L1317.61 1294.94 L1314.08 1294.94 L1310.56 1294.94 L1307.03 1294.94 L1303.51 1294.94 L1299.98 1294.94 L1296.45 1294.94 
  L1292.93 1294.94 L1289.4 1294.94 L1285.88 1294.94 L1282.35 1294.94 L1278.82 1294.94 L1275.3 1294.94 L1271.77 1294.94 L1268.25 1294.94 L1264.72 1294.94 L1261.19 1294.94 
  L1257.67 1294.94 L1254.14 1294.94 L1250.62 1294.94 L1247.09 1294.94 L1243.57 1294.94 L1240.04 1294.94 L1236.51 1294.94 L1232.99 1294.94 L1229.46 1294.94 L1225.94 1294.94 
  L1222.41 1294.94 L1218.88 1294.94 L1215.36 1294.94 L1211.83 1294.94 L1208.31 1294.94 L1204.78 1294.94 L1201.25 1294.94 L1197.73 1294.94 L1194.2 1294.94 L1190.68 1294.94 
  L1187.15 1294.94 L1183.62 1294.94 L1180.1 1294.94 L1176.57 1294.94 L1173.05 1294.94 L1169.52 1294.94 L1165.99 1294.94 L1162.47 1294.94 L1158.94 1294.94 L1155.42 1294.94 
  L1151.89 1294.94 L1148.36 1294.94 L1144.84 1294.94 L1141.31 1294.94 L1137.79 1294.94 L1134.26 1294.94 L1130.73 1294.94 L1127.21 1294.94 L1123.68 1294.94 L1120.16 1294.94 
  L1116.63 1294.94 L1113.1 1294.94 L1109.58 1294.94 L1106.05 1294.94 L1102.53 1294.94 L1099 1294.94 L1095.47 1294.94 L1091.95 1294.94 L1088.42 1294.94 L1084.9 1294.94 
  L1081.37 1294.94 L1077.84 1294.94 L1074.32 1294.94 L1070.79 1294.94 L1067.27 1294.94 L1063.74 1294.94 L1060.21 1294.94 L1056.69 1294.94 L1053.16 1294.94 L1049.64 1294.94 
  L1046.11 1294.94 L1042.58 1294.94 L1039.06 1294.94 L1035.53 1294.94  Z
  " fill="#c9b1d5" fill-rule="evenodd" fill-opacity="0.5"/>
<polyline clip-path="url(#clip642)" style="stroke:#6a3c9a; stroke-linecap:butt; stroke-linejoin:round; stroke-width:12; stroke-opacity:1; fill:none" points="
  1035.53,1192.22 1039.06,1193.71 1042.58,1195.18 1046.11,1196.62 1049.64,1198.04 1053.16,1199.45 1056.69,1200.83 1060.21,1202.19 1063.74,1203.53 1067.27,1204.86 
  1070.79,1206.16 1074.32,1207.44 1077.84,1208.71 1081.37,1209.96 1084.9,1211.19 1088.42,1212.4 1091.95,1213.59 1095.47,1214.77 1099,1215.93 1102.53,1217.07 
  1106.05,1218.19 1109.58,1219.3 1113.1,1220.39 1116.63,1221.47 1120.16,1222.53 1123.68,1223.57 1127.21,1224.6 1130.73,1225.62 1134.26,1226.62 1137.79,1227.6 
  1141.31,1228.57 1144.84,1229.53 1148.36,1230.47 1151.89,1231.4 1155.42,1232.32 1158.94,1233.22 1162.47,1234.11 1165.99,1234.98 1169.52,1235.84 1173.05,1236.69 
  1176.57,1237.53 1180.1,1238.35 1183.62,1239.17 1187.15,1239.97 1190.68,1240.76 1194.2,1241.54 1197.73,1242.3 1201.25,1243.06 1204.78,1243.8 1208.31,1244.53 
  1211.83,1245.26 1215.36,1245.97 1218.88,1246.67 1222.41,1247.36 1225.94,1248.04 1229.46,1248.71 1232.99,1249.37 1236.51,1250.02 1240.04,1250.66 1243.57,1251.3 
  1247.09,1251.92 1250.62,1252.53 1254.14,1253.14 1257.67,1253.73 1261.19,1254.32 1264.72,1254.9 1268.25,1255.47 1271.77,1256.03 1275.3,1256.58 1278.82,1257.13 
  1282.35,1257.67 1285.88,1258.2 1289.4,1258.72 1292.93,1259.23 1296.45,1259.74 1299.98,1260.24 1303.51,1260.73 1307.03,1261.22 1310.56,1261.69 1314.08,1262.16 
  1317.61,1262.63 1321.14,1263.08 1324.66,1263.54 1328.19,1263.98 1331.71,1264.42 1335.24,1264.85 1338.77,1265.27 1342.29,1265.69 1345.82,1266.1 1349.34,1266.51 
  1352.87,1266.91 1356.4,1267.3 1359.92,1267.69 1363.45,1268.08 1366.97,1268.45 1370.5,1268.83 1374.03,1269.19 1377.55,1269.55 1381.08,1269.91 1384.6,1270.26 
  1388.13,1270.61 1391.66,1270.95 1395.18,1271.28 1398.71,1271.62 1402.23,1271.94 1405.76,1272.26 1409.29,1272.58 1412.81,1272.89 1416.34,1273.2 1419.86,1273.5 
  1423.39,1273.8 1426.92,1274.1 1430.44,1274.39 1433.97,1274.67 1437.49,1274.95 1441.02,1275.23 1444.55,1275.51 1448.07,1275.78 1451.6,1276.04 1455.12,1276.3 
  1458.65,1276.56 1462.18,1276.82 1465.7,1277.07 1469.23,1277.32 1472.75,1277.56 1476.28,1277.8 1479.81,1278.04 1483.33,1278.27 1486.86,1278.5 1490.38,1278.73 
  1493.91,1278.95 1497.44,1279.17 1500.96,1279.39 1504.49,1279.6 1508.01,1279.81 1511.54,1280.02 1515.07,1280.23 1518.59,1280.43 1522.12,1280.63 1525.64,1280.82 
  1529.17,1281.02 1532.69,1281.21 1536.22,1281.4 1539.75,1281.58 1543.27,1281.77 1546.8,1281.95 1550.32,1282.12 1553.85,1282.3 1557.38,1282.47 1560.9,1282.64 
  1564.43,1282.81 1567.95,1282.97 1571.48,1283.14 1575.01,1283.3 1578.53,1283.46 1582.06,1283.61 1585.58,1283.77 1589.11,1283.92 1592.64,1284.07 1596.16,1284.21 
  1599.69,1284.36 1603.21,1284.5 1606.74,1284.64 1610.27,1284.78 1613.79,1284.92 1617.32,1285.06 1620.84,1285.19 1624.37,1285.32 1627.9,1285.45 1631.42,1285.58 
  1634.95,1285.7 1638.47,1285.83 1642,1285.95 1645.53,1286.07 1649.05,1286.19 1652.58,1286.31 1656.1,1286.42 1659.63,1286.54 1663.16,1286.65 1666.68,1286.76 
  1670.21,1286.87 1673.73,1286.98 1677.26,1287.09 1680.79,1287.19 1684.31,1287.29 1687.84,1287.4 1691.36,1287.5 1694.89,1287.6 1698.42,1287.69 1701.94,1287.79 
  1705.47,1287.89 1708.99,1287.98 1712.52,1288.07 1716.05,1288.16 1719.57,1288.25 1723.1,1288.34 1726.62,1288.43 1730.15,1288.52 1733.68,1288.6 1737.2,1288.68 
  1740.73,1288.77 1744.25,1288.85 1747.78,1288.93 1751.31,1289.01 1754.83,1289.09 1758.36,1289.16 1761.88,1289.24 1765.41,1289.31 1768.94,1289.39 1772.46,1289.46 
  1775.99,1289.53 1779.51,1289.6 1783.04,1289.67 1786.57,1289.74 1790.09,1289.81 1793.62,1289.88 1797.14,1289.95 1800.67,1290.01 1804.19,1290.07 1807.72,1290.14 
  1811.25,1290.2 1814.77,1290.26 1818.3,1290.32 1821.82,1290.38 1825.35,1290.44 1828.88,1290.5 1832.4,1290.56 1835.93,1290.62 1839.45,1290.67 1842.98,1290.73 
  1846.51,1290.78 1850.03,1290.84 1853.56,1290.89 1857.08,1290.94 1860.61,1290.99 1864.14,1291.04 1867.66,1291.1 1871.19,1291.14 1874.71,1291.19 1878.24,1291.24 
  1881.77,1291.29 1885.29,1291.34 1888.82,1291.38 1892.34,1291.43 1895.87,1291.47 1899.4,1291.52 1902.92,1291.56 1906.45,1291.61 1909.97,1291.65 1913.5,1291.69 
  1917.03,1291.73 1920.55,1291.77 1924.08,1291.81 1927.6,1291.85 1931.13,1291.89 1934.66,1291.93 1938.18,1291.97 1941.71,1292.01 1945.23,1292.05 1948.76,1292.08 
  1952.29,1292.12 1955.81,1292.15 1959.34,1292.19 1962.86,1292.22 1966.39,1292.26 1969.92,1292.29 1973.44,1292.33 1976.97,1292.36 1980.49,1292.39 1984.02,1292.42 
  1987.55,1292.46 1991.07,1292.49 1994.6,1292.52 1998.12,1292.55 2001.65,1292.58 2005.18,1292.61 2008.7,1292.64 2012.23,1292.67 2015.75,1292.7 2019.28,1292.72 
  2022.81,1292.75 2026.33,1292.78 2029.86,1292.81 2033.38,1292.83 2036.91,1292.86 2040.44,1292.89 2043.96,1292.91 2047.49,1292.94 2051.01,1292.96 2054.54,1292.99 
  2058.07,1293.01 2061.59,1293.03 2065.12,1293.06 2068.64,1293.08 2072.17,1293.1 2075.69,1293.13 2079.22,1293.15 2082.75,1293.17 2086.27,1293.19 2089.8,1293.22 
  2093.32,1293.24 2096.85,1293.26 2100.38,1293.28 2103.9,1293.3 2107.43,1293.32 2110.95,1293.34 2114.48,1293.36 2118.01,1293.38 2121.53,1293.4 2125.06,1293.42 
  2128.58,1293.44 2132.11,1293.45 2135.64,1293.47 2139.16,1293.49 2142.69,1293.51 2146.21,1293.53 2149.74,1293.54 2153.27,1293.56 2156.79,1293.58 2160.32,1293.59 
  2163.84,1293.61 2167.37,1293.63 2170.9,1293.64 2174.42,1293.66 2177.95,1293.67 2181.47,1293.69 2185,1293.7 2188.53,1293.72 2192.05,1293.73 2195.58,1293.75 
  2199.1,1293.76 2202.63,1293.78 2206.16,1293.79 2209.68,1293.81 2213.21,1293.82 2216.73,1293.83 2220.26,1293.85 2223.79,1293.86 2227.31,1293.87 2230.84,1293.89 
  2234.36,1293.9 2237.89,1293.91 2241.42,1293.92 2244.94,1293.94 2248.47,1293.95 2251.99,1293.96 2255.52,1293.97 
  "/>
<polyline clip-path="url(#clip642)" style="stroke:#6a3c9a; stroke-linecap:butt; stroke-linejoin:round; stroke-width:12; stroke-opacity:1; fill:none" points="
  142.208,1294.94 145.734,1283.18 149.26,1262.62 152.786,1237.27 156.312,1208.69 159.838,1177.84 163.364,1145.39 166.89,1111.85 170.415,1077.6 173.941,1042.95 
  177.467,1008.16 180.993,973.438 184.519,938.951 188.045,904.844 191.571,871.238 195.097,838.234 198.623,805.914 202.149,774.348 205.675,743.593 209.201,713.696 
  212.727,684.694 216.253,656.617 219.779,629.488 223.305,603.323 226.831,578.135 230.357,553.93 233.883,530.711 237.409,508.477 240.935,487.226 244.461,466.95 
  247.987,447.641 251.513,429.289 255.039,411.88 258.565,395.4 262.091,379.836 265.617,365.169 269.143,351.382 272.669,338.458 276.195,326.377 279.721,315.12 
  283.247,304.668 286.773,294.999 290.299,286.093 293.825,277.931 297.351,270.49 300.877,263.752 304.403,257.694 307.928,252.296 311.454,247.538 314.98,243.399 
  318.506,239.86 322.032,236.9 325.558,234.499 329.084,232.64 332.61,231.301 336.136,230.465 339.662,230.113 343.188,230.227 346.714,230.789 350.24,231.783 
  353.766,233.19 357.292,234.995 360.818,237.18 364.344,239.731 367.87,242.632 371.396,245.868 374.922,249.423 378.448,253.284 381.974,257.437 385.5,261.867 
  389.026,266.563 392.552,271.511 396.078,276.699 399.604,282.114 403.13,287.745 406.656,293.58 410.182,299.609 413.708,305.821 417.234,312.205 420.76,318.751 
  424.286,325.45 427.812,332.292 431.338,339.269 434.864,346.371 438.39,353.589 441.916,360.917 445.441,368.345 448.967,375.866 452.493,383.474 456.019,391.16 
  459.545,398.917 463.071,406.74 466.597,414.622 470.123,422.557 473.649,430.539 477.175,438.562 480.701,446.62 484.227,454.71 487.753,462.825 491.279,470.96 
  494.805,479.112 498.331,487.275 501.857,495.446 505.383,503.62 508.909,511.794 512.435,519.963 515.961,528.124 519.487,536.275 523.013,544.41 526.539,552.528 
  530.065,560.625 533.591,568.699 537.117,576.746 540.643,584.765 544.169,592.753 547.695,600.707 551.221,608.625 554.747,616.505 558.273,624.346 561.799,632.145 
  565.325,639.9 568.851,647.61 572.377,655.274 575.903,662.889 579.429,670.455 582.954,677.969 586.48,685.432 590.006,692.841 593.532,700.196 597.058,707.495 
  600.584,714.738 604.11,721.923 607.636,729.051 611.162,736.119 614.688,743.129 618.214,750.078 621.74,756.966 625.266,763.793 628.792,770.559 632.318,777.263 
  635.844,783.904 639.37,790.482 642.896,796.998 646.422,803.45 649.948,809.839 653.474,816.164 657,822.426 660.526,828.624 664.052,834.758 667.578,840.829 
  671.104,846.835 674.63,852.778 678.156,858.657 681.682,864.473 685.208,870.225 688.734,875.914 692.26,881.54 695.786,887.103 699.312,892.604 702.838,898.041 
  706.364,903.417 709.89,908.731 713.416,913.983 716.942,919.174 720.467,924.305 723.993,929.374 727.519,934.383 731.045,939.333 734.571,944.222 738.097,949.053 
  741.623,953.825 745.149,958.539 748.675,963.195 752.201,967.793 755.727,972.334 759.253,976.819 762.779,981.248 766.305,985.621 769.831,989.938 773.357,994.201 
  776.883,998.41 780.409,1002.57 783.935,1006.67 787.461,1010.72 790.987,1014.71 794.513,1018.66 798.039,1022.55 801.565,1026.39 805.091,1030.19 808.617,1033.93 
  812.143,1037.62 815.669,1041.27 819.195,1044.86 822.721,1048.41 826.247,1051.91 829.773,1055.36 833.299,1058.77 836.825,1062.13 840.351,1065.45 843.877,1068.72 
  847.403,1071.95 850.929,1075.13 854.455,1078.27 857.98,1081.37 861.506,1084.43 865.032,1087.44 868.558,1090.41 872.084,1093.34 875.61,1096.23 879.136,1099.08 
  882.662,1101.9 886.188,1104.67 889.714,1107.4 893.24,1110.1 896.766,1112.76 900.292,1115.38 903.818,1117.96 907.344,1120.51 910.87,1123.02 914.396,1125.5 
  917.922,1127.94 921.448,1130.35 924.974,1132.73 928.5,1135.07 932.026,1137.37 935.552,1139.65 939.078,1141.89 942.604,1144.1 946.13,1146.28 949.656,1148.43 
  953.182,1150.55 956.708,1152.64 960.234,1154.69 963.76,1156.72 967.286,1158.72 970.812,1160.69 974.338,1162.64 977.864,1164.55 981.39,1166.44 984.916,1168.3 
  988.442,1170.13 991.968,1171.94 995.493,1173.72 999.019,1175.47 1002.55,1177.2 1006.07,1178.91 1009.6,1180.59 1013.12,1182.25 1016.65,1183.88 1020.18,1185.49 
  1023.7,1187.07 1027.23,1188.63 1030.75,1190.17 1034.28,1191.69 1037.81,1193.18 1041.33,1194.66 1044.86,1196.11 1048.38,1197.54 1051.91,1198.95 1055.44,1200.34 
  1058.96,1201.71 1062.49,1203.06 1066.01,1204.39 1069.54,1205.7 1073.06,1206.99 1076.59,1208.26 1080.12,1209.52 1083.64,1210.75 1087.17,1211.97 1090.69,1213.17 
  1094.22,1214.35 1097.75,1215.52 1101.27,1216.66 1104.8,1217.79 1108.32,1218.91 1111.85,1220.01 1115.38,1221.09 1118.9,1222.15 1122.43,1223.2 1125.95,1224.24 
  1129.48,1225.26 1133.01,1226.26 1136.53,1227.25 1140.06,1228.23 1143.58,1229.19 1147.11,1230.14 1150.64,1231.07 1154.16,1231.99 1157.69,1232.9 1161.21,1233.79 
  1164.74,1234.67 1168.27,1235.54 1171.79,1236.39 1175.32,1237.23 1178.84,1238.06 1182.37,1238.88 1185.9,1239.69 1189.42,1240.48 1192.95,1241.26 1196.47,1242.03 
  1200,1242.79 1203.53,1243.54 1207.05,1244.27 1210.58,1245 1214.1,1245.72 1217.63,1246.42 1221.16,1247.11 1224.68,1247.8 1228.21,1248.47 1231.73,1249.14 
  1235.26,1249.79 1238.79,1250.44 1242.31,1251.07 1245.84,1251.7 1249.36,1252.32 1252.89,1252.92 1256.42,1253.52 1259.94,1254.11 1263.47,1254.69 1266.99,1255.27 
  1270.52,1255.83 1274.05,1256.39 1277.57,1256.94 1281.1,1257.48 1284.62,1258.01 1288.15,1258.53 1291.68,1259.05 1295.2,1259.56 1298.73,1260.06 1302.25,1260.56 
  1305.78,1261.04 1309.31,1261.52 1312.83,1262 1316.36,1262.46 1319.88,1262.92 1323.41,1263.38 1326.94,1263.82 1330.46,1264.26 1333.99,1264.7 1337.51,1265.12 
  1341.04,1265.54 1344.56,1265.96 1348.09,1266.37 1351.62,1266.77 1355.14,1267.16 1358.67,1267.56 1362.19,1267.94 1365.72,1268.32 1369.25,1268.69 1372.77,1269.06 
  1376.3,1269.43 1379.82,1269.78 1383.35,1270.14 1386.88,1270.48 1390.4,1270.83 1393.93,1271.17 1397.45,1271.5 1400.98,1271.83 1404.51,1272.15 1408.03,1272.47 
  1411.56,1272.78 1415.08,1273.09 1418.61,1273.4 1422.14,1273.7 1425.66,1273.99 1429.19,1274.28 1432.71,1274.57 1436.24,1274.86 1439.77,1275.13 1443.29,1275.41 
  1446.82,1275.68 1450.34,1275.95 1453.87,1276.21 1457.4,1276.47 1460.92,1276.73 1464.45,1276.98 1467.97,1277.23 1471.5,1277.47 1475.03,1277.72 1478.55,1277.95 
  1482.08,1278.19 1485.6,1278.42 1489.13,1278.65 1492.66,1278.87 1496.18,1279.09 1499.71,1279.31 1503.23,1279.53 1506.76,1279.74 1510.29,1279.95 1513.81,1280.15 
  1517.34,1280.36 1520.86,1280.56 1524.39,1280.76 1527.92,1280.95 1531.44,1281.14 1534.97,1281.33 1538.49,1281.52 1542.02,1281.7 1545.55,1281.88 1549.07,1282.06 
  1552.6,1282.24 1556.12,1282.41 1559.65,1282.58 1563.18,1282.75 1566.7,1282.92 1570.23,1283.08 1573.75,1283.24 1577.28,1283.4 1580.81,1283.56 1584.33,1283.71 
  1587.86,1283.86 1591.38,1284.01 1594.91,1284.16 1598.44,1284.31 1601.96,1284.45 1605.49,1284.59 1609.01,1284.73 1612.54,1284.87 1616.06,1285.01 1619.59,1285.14 
  1623.12,1285.27 1626.64,1285.4 1630.17,1285.53 1633.69,1285.66 1637.22,1285.78 1640.75,1285.91 1644.27,1286.03 1647.8,1286.15 1651.32,1286.27 1654.85,1286.38 
  1658.38,1286.5 1661.9,1286.61 1665.43,1286.72 1668.95,1286.83 1672.48,1286.94 1676.01,1287.05 1679.53,1287.15 1683.06,1287.26 1686.58,1287.36 1690.11,1287.46 
  1693.64,1287.56 1697.16,1287.66 1700.69,1287.76 1704.21,1287.85 1707.74,1287.95 1711.27,1288.04 1714.79,1288.13 1718.32,1288.22 1721.84,1288.31 1725.37,1288.4 
  1728.9,1288.49 1732.42,1288.57 1735.95,1288.65 1739.47,1288.74 1743,1288.82 1746.53,1288.9 1750.05,1288.98 1753.58,1289.06 1757.1,1289.14 1760.63,1289.21 
  1764.16,1289.29 1767.68,1289.36 1771.21,1289.44 1774.73,1289.51 1778.26,1289.58 1781.79,1289.65 1785.31,1289.72 1788.84,1289.79 1792.36,1289.86 1795.89,1289.92 
  1799.42,1289.99 1802.94,1290.05 1806.47,1290.12 1809.99,1290.18 1813.52,1290.24 1817.05,1290.3 1820.57,1290.36 1824.1,1290.42 1827.62,1290.48 1831.15,1290.54 
  1834.68,1290.6 1838.2,1290.65 1841.73,1290.71 1845.25,1290.76 1848.78,1290.82 1852.31,1290.87 1855.83,1290.92 1859.36,1290.98 1862.88,1291.03 1866.41,1291.08 
  1869.94,1291.13 1873.46,1291.18 1876.99,1291.22 1880.51,1291.27 1884.04,1291.32 1887.56,1291.37 1891.09,1291.41 1894.62,1291.46 1898.14,1291.5 1901.67,1291.55 
  1905.19,1291.59 1908.72,1291.63 1912.25,1291.68 1915.77,1291.72 1919.3,1291.76 1922.82,1291.8 1926.35,1291.84 1929.88,1291.88 1933.4,1291.92 1936.93,1291.96 
  1940.45,1291.99 1943.98,1292.03 1947.51,1292.07 1951.03,1292.11 1954.56,1292.14 1958.08,1292.18 1961.61,1292.21 1965.14,1292.25 1968.66,1292.28 1972.19,1292.31 
  1975.71,1292.35 1979.24,1292.38 1982.77,1292.41 1986.29,1292.44 1989.82,1292.48 1993.34,1292.51 1996.87,1292.54 2000.4,1292.57 2003.92,1292.6 2007.45,1292.63 
  2010.97,1292.66 2014.5,1292.69 2018.03,1292.71 2021.55,1292.74 2025.08,1292.77 2028.6,1292.8 2032.13,1292.82 2035.66,1292.85 2039.18,1292.88 2042.71,1292.9 
  2046.23,1292.93 2049.76,1292.95 2053.29,1292.98 2056.81,1293 2060.34,1293.03 2063.86,1293.05 2067.39,1293.07 2070.92,1293.1 2074.44,1293.12 2077.97,1293.14 
  2081.49,1293.16 2085.02,1293.19 2088.55,1293.21 2092.07,1293.23 2095.6,1293.25 2099.12,1293.27 2102.65,1293.29 2106.18,1293.31 2109.7,1293.33 2113.23,1293.35 
  2116.75,1293.37 2120.28,1293.39 2123.81,1293.41 2127.33,1293.43 2130.86,1293.45 2134.38,1293.47 2137.91,1293.48 2141.44,1293.5 2144.96,1293.52 2148.49,1293.54 
  2152.01,1293.55 2155.54,1293.57 2159.07,1293.59 2162.59,1293.6 2166.12,1293.62 2169.64,1293.64 2173.17,1293.65 2176.69,1293.67 2180.22,1293.68 2183.75,1293.7 
  2187.27,1293.71 2190.8,1293.73 2194.32,1293.74 2197.85,1293.76 2201.38,1293.77 2204.9,1293.79 2208.43,1293.8 2211.95,1293.81 2215.48,1293.83 2219.01,1293.84 
  2222.53,1293.86 2226.06,1293.87 2229.58,1293.88 2233.11,1293.89 2236.64,1293.91 2240.16,1293.92 2243.69,1293.93 2247.21,1293.94 2250.74,1293.96 2254.27,1293.97 
  2257.79,1293.98 
  "/>
<polyline clip-path="url(#clip642)" style="stroke:#000000; stroke-linecap:butt; stroke-linejoin:round; stroke-width:4; stroke-opacity:1; fill:none" points="
  947.383,1110.05 1035.53,1294.94 
  "/>
<polyline clip-path="url(#clip642)" style="stroke:#000000; stroke-linecap:butt; stroke-linejoin:round; stroke-width:4; stroke-opacity:1; fill:none" points="
  1036.29,1254.7 1035.53,1294.94 1003.79,1270.19 
  "/>
<polyline clip-path="url(#clip642)" style="stroke:#000000; stroke-linecap:butt; stroke-linejoin:round; stroke-width:4; stroke-opacity:1; fill:none" points="
  1035.53,1294.94 947.383,1110.05 
  "/>
<polyline clip-path="url(#clip642)" style="stroke:#000000; stroke-linecap:butt; stroke-linejoin:round; stroke-width:4; stroke-opacity:1; fill:none" points="
  1493.91,1089.51 1211.83,1280.49 
  "/>
<polyline clip-path="url(#clip642)" style="stroke:#000000; stroke-linecap:butt; stroke-linejoin:round; stroke-width:4; stroke-opacity:1; fill:none" points="
  1251.73,1275.21 1211.83,1280.49 1231.55,1245.4 
  "/>
<polyline clip-path="url(#clip642)" style="stroke:#000000; stroke-linecap:butt; stroke-linejoin:round; stroke-width:4; stroke-opacity:1; fill:none" points="
  1211.83,1280.49 1493.91,1089.51 
  "/>
<path clip-path="url(#clip640)" d="M925.743 1011.71 L924.062 1026.22 Q923.939 1027.53 923.734 1027.94 Q923.529 1028.31 922.873 1028.31 Q921.89 1028.31 921.89 1027.33 Q921.89 1026.92 922.054 1025.81 Q922.3 1023.56 922.3 1021.26 Q922.3 1018.68 921.808 1017.08 Q921.357 1015.44 920.045 1014.25 Q918.733 1013.06 916.315 1012.57 Q913.897 1012.04 910.044 1012.04 L898.977 1012.04 Q896.271 1012.04 895.616 1012.53 Q895.001 1013.02 894.427 1015.32 L889.057 1036.63 L896.681 1036.63 Q902.01 1036.63 904.1 1035.08 Q906.191 1033.52 907.502 1028.56 Q907.707 1027.78 907.789 1027.49 Q907.912 1027.16 908.117 1027 Q908.363 1026.8 908.773 1026.8 Q909.142 1026.8 909.388 1027.04 Q909.634 1027.25 909.716 1027.49 L909.798 1027.74 Q909.798 1028.15 909.552 1029.09 L904.92 1047.29 Q904.592 1048.52 904.387 1048.81 Q904.223 1049.05 903.649 1049.05 Q903.24 1049.05 902.953 1048.77 Q902.666 1048.48 902.666 1048.03 Q902.748 1047.54 902.912 1047.13 Q903.485 1044.63 903.485 1043.03 Q903.485 1042 903.281 1041.39 Q903.076 1040.77 902.379 1040.24 Q901.682 1039.71 900.247 1039.46 Q898.813 1039.22 896.517 1039.22 L888.401 1039.22 L883.196 1060.12 L882.827 1062.05 Q882.827 1062.91 883.278 1063.24 Q883.77 1063.56 885.532 1063.73 Q888.155 1063.93 889.877 1063.93 Q892.008 1063.93 892.254 1064.01 Q892.746 1064.26 892.746 1064.92 Q892.746 1065.65 892.418 1066.06 Q892.09 1066.43 891.804 1066.47 Q891.517 1066.51 890.984 1066.51 L878.482 1066.27 L867.415 1066.51 Q866.144 1066.51 866.144 1065.49 Q866.144 1064.71 866.472 1064.38 Q866.8 1064.01 867.169 1063.97 Q867.538 1063.93 868.481 1063.93 Q870.53 1063.93 871.76 1063.81 Q872.989 1063.69 873.768 1063.52 Q874.588 1063.32 874.998 1062.74 Q875.449 1062.17 875.654 1061.68 Q875.859 1061.14 876.146 1059.96 L887.213 1015.56 Q887.623 1014.05 887.623 1013.56 Q887.623 1013.02 887.254 1012.7 Q886.926 1012.37 886.024 1012.24 Q885.122 1012.08 884.384 1012.08 Q883.688 1012.04 882.171 1012.04 Q881.187 1012.04 880.777 1012 Q880.408 1011.96 880.122 1011.75 Q879.835 1011.55 879.835 1011.1 Q879.835 1009.95 880.327 1009.7 Q880.859 1009.42 882.335 1009.42 L923.488 1009.42 Q925.128 1009.42 925.497 1009.79 Q925.907 1010.11 925.743 1011.71 Z" fill="#000000" fill-rule="evenodd" fill-opacity="1" /><path clip-path="url(#clip640)" d="M938.022 1086.66 Q934.292 1082.75 934.292 1077.19 Q934.292 1071.59 937.964 1067.58 Q941.637 1063.53 947.031 1063.53 Q950.618 1063.53 953.315 1065.25 Q956.012 1066.94 956.012 1069.84 Q956.012 1071.13 955.237 1071.88 Q954.491 1072.6 953.315 1072.6 Q952.081 1072.6 951.335 1071.85 Q950.618 1071.08 950.618 1069.9 Q950.618 1069.38 950.79 1068.87 Q950.962 1068.35 951.593 1067.81 Q952.253 1067.26 953.372 1067.17 Q951.278 1065.02 947.203 1065.02 Q947.146 1065.02 947.089 1065.02 Q944.105 1065.02 941.637 1067.83 Q939.169 1070.65 939.169 1077.07 Q939.169 1080.43 939.973 1082.9 Q940.805 1085.34 942.153 1086.6 Q943.502 1087.86 944.822 1088.46 Q946.142 1089.04 947.433 1089.04 Q953.2 1089.04 955.151 1082.87 Q955.323 1082.3 955.897 1082.3 Q956.672 1082.3 956.672 1082.87 Q956.672 1083.16 956.442 1083.9 Q956.213 1084.65 955.495 1085.82 Q954.778 1087 953.745 1088.03 Q952.741 1089.04 950.933 1089.78 Q949.154 1090.53 946.916 1090.53 Q941.752 1090.53 938.022 1086.66 Z" fill="#000000" fill-rule="evenodd" fill-opacity="1" /><path clip-path="url(#clip640)" d="M958.477 1089.87 L958.477 1088.06 Q961.604 1088.06 962.321 1087.69 Q963.067 1087.29 963.067 1085.39 L963.067 1069.64 Q963.067 1067.46 962.293 1066.92 Q961.547 1066.37 958.477 1066.37 L958.477 1064.53 L966.654 1063.9 L966.654 1070.36 Q967.486 1067.83 969.236 1065.88 Q971.015 1063.9 973.884 1063.9 Q975.778 1063.9 976.983 1064.97 Q978.217 1066.03 978.217 1067.49 Q978.217 1068.78 977.414 1069.44 Q976.639 1070.07 975.692 1070.07 Q974.63 1070.07 973.884 1069.41 Q973.167 1068.72 973.167 1067.55 Q973.167 1066.83 973.483 1066.29 Q973.827 1065.71 974.085 1065.51 Q974.343 1065.31 974.516 1065.25 Q974.401 1065.19 973.884 1065.19 Q970.642 1065.19 968.777 1068.44 Q966.941 1071.65 966.941 1076.24 L966.941 1085.28 Q966.941 1086.97 967.629 1087.52 Q968.347 1088.06 971.417 1088.06 L972.651 1088.06 L972.651 1089.87 Q970.298 1089.7 965.191 1089.7 Q964.473 1089.7 963.354 1089.73 Q962.235 1089.76 960.772 1089.81 Q959.309 1089.87 958.477 1089.87 Z" fill="#000000" fill-rule="evenodd" fill-opacity="1" /><path clip-path="url(#clip640)" d="M980.516 1089.87 L980.516 1088.06 Q983.643 1088.06 984.361 1087.69 Q985.078 1087.29 985.078 1085.39 L985.078 1069.58 Q985.078 1067.4 984.332 1066.89 Q983.615 1066.37 980.745 1066.37 L980.745 1064.53 L988.952 1063.9 L988.952 1085.45 Q988.952 1087.2 989.583 1087.63 Q990.214 1088.06 993.083 1088.06 L993.083 1089.87 Q987.086 1089.7 986.972 1089.7 Q986.168 1089.7 980.516 1089.87 M982.983 1053.66 Q982.983 1052.48 983.873 1051.54 Q984.791 1050.56 986.082 1050.56 Q987.373 1050.56 988.292 1051.45 Q989.21 1052.31 989.21 1053.69 Q989.21 1055.04 988.292 1055.93 Q987.373 1056.79 986.082 1056.79 Q984.734 1056.79 983.844 1055.84 Q982.983 1054.89 982.983 1053.66 Z" fill="#000000" fill-rule="evenodd" fill-opacity="1" /><path clip-path="url(#clip640)" d="M997.099 1066.37 L997.099 1065.08 Q999.796 1064.97 1001.57 1063.07 Q1003.38 1061.15 1003.99 1058.8 Q1004.62 1056.44 1004.67 1053.72 L1006.14 1053.72 L1006.14 1064.53 L1014.54 1064.53 L1014.54 1066.37 L1006.14 1066.37 L1006.14 1082.7 Q1006.14 1089.04 1010.1 1089.04 Q1011.79 1089.04 1012.91 1087.32 Q1014.03 1085.57 1014.03 1082.47 L1014.03 1079.23 L1015.49 1079.23 L1015.49 1082.58 Q1015.49 1085.77 1014.03 1088.15 Q1012.56 1090.53 1009.67 1090.53 Q1008.6 1090.53 1007.54 1090.24 Q1006.51 1089.99 1005.13 1089.3 Q1003.78 1088.58 1002.92 1086.86 Q1002.09 1085.11 1002.09 1082.58 L1002.09 1066.37 L997.099 1066.37 Z" fill="#000000" fill-rule="evenodd" fill-opacity="1" /><path clip-path="url(#clip640)" d="M1384.72 1044.88 Q1384.64 1045.29 1384.47 1046.03 Q1384.31 1046.73 1383.57 1048.94 Q1382.83 1051.16 1381.85 1053.41 Q1380.91 1055.62 1379.06 1058.74 Q1377.26 1061.81 1375.04 1064.6 Q1374.43 1065.34 1374.31 1065.79 Q1374.22 1066.2 1374.22 1067.55 Q1374.22 1076.08 1376.81 1076.08 Q1376.93 1076.08 1377.13 1076.08 Q1377.38 1076.04 1377.99 1075.83 Q1378.65 1075.59 1379.22 1075.22 Q1379.8 1074.81 1380.45 1073.99 Q1381.11 1073.13 1381.52 1071.98 Q1381.89 1071.16 1382.63 1071.16 Q1383.61 1071.16 1383.61 1071.98 Q1383.61 1073.45 1381.56 1075.71 Q1379.51 1077.96 1376.56 1077.96 Q1373.73 1077.96 1371.72 1076.12 Q1369.76 1074.23 1368.94 1070.87 Q1360.08 1077.96 1351.23 1077.96 Q1345 1077.96 1341.31 1073.91 Q1337.62 1069.81 1337.62 1063.74 Q1337.62 1057.92 1340.82 1052.39 Q1344.06 1046.85 1349.3 1043.41 Q1354.59 1039.93 1360.21 1039.93 Q1362.17 1039.93 1364.06 1040.46 Q1365.94 1040.95 1367.83 1042.22 Q1369.72 1043.49 1371.11 1045.42 Q1372.5 1047.34 1373.36 1050.38 Q1374.22 1053.41 1374.22 1057.22 L1374.22 1062.43 Q1379.63 1055.58 1382.46 1045.79 Q1382.87 1044.31 1383.12 1044.15 Q1383.28 1044.02 1383.69 1044.02 Q1384.1 1044.02 1384.35 1044.27 Q1384.64 1044.47 1384.68 1044.68 L1384.72 1044.88 M1368.61 1068.7 Q1368.44 1067.26 1368.44 1059.31 Q1368.44 1057.8 1368.44 1056.98 Q1368.44 1056.12 1368.36 1054.48 Q1368.28 1052.84 1368.12 1051.81 Q1367.99 1050.79 1367.71 1049.31 Q1367.42 1047.84 1367.01 1046.89 Q1366.6 1045.95 1365.94 1044.88 Q1365.33 1043.82 1364.51 1043.2 Q1363.73 1042.59 1362.58 1042.18 Q1361.48 1041.77 1360.12 1041.77 Q1358.44 1041.77 1356.68 1042.38 Q1354.96 1042.96 1352.75 1044.8 Q1350.53 1046.61 1348.69 1049.48 Q1346.76 1052.51 1345.29 1058.08 Q1343.85 1063.62 1343.85 1066.94 Q1343.85 1071.12 1345.78 1073.62 Q1347.7 1076.08 1351.39 1076.08 Q1360.21 1076.08 1368.61 1068.7 Z" fill="#000000" fill-rule="evenodd" fill-opacity="1" /><path clip-path="url(#clip640)" d="M1414.09 1064.27 Q1414.17 1063.25 1415.77 1063.25 L1467.21 1063.25 Q1469.63 1063.25 1469.67 1064.19 Q1469.67 1065.22 1467.38 1065.17 L1416.35 1065.17 Q1414.09 1065.22 1414.09 1064.27 M1414.09 1047.88 Q1414.09 1046.85 1415.85 1046.89 L1467.13 1046.89 Q1469.63 1046.89 1469.67 1047.88 Q1469.67 1048.82 1467.54 1048.82 L1415.77 1048.82 Q1414.09 1048.82 1414.09 1047.88 Z" fill="#000000" fill-rule="evenodd" fill-opacity="1" /><path clip-path="url(#clip640)" d="M1502.05 1050.17 Q1502.05 1037.83 1505.17 1031.11 Q1509.51 1021.11 1519.76 1021.11 Q1521.93 1021.11 1524.19 1021.73 Q1526.48 1022.3 1529.35 1024.55 Q1532.26 1026.81 1534.02 1030.5 Q1537.38 1037.63 1537.38 1050.17 Q1537.38 1062.43 1534.27 1069.11 Q1529.72 1078.86 1519.68 1078.86 Q1515.91 1078.86 1512.05 1076.94 Q1508.24 1075.01 1505.82 1070.38 Q1502.05 1063.45 1502.05 1050.17 M1509.02 1049.15 Q1509.02 1061.81 1509.92 1066.86 Q1510.95 1072.31 1513.73 1074.68 Q1516.56 1077.02 1519.68 1077.02 Q1523.04 1077.02 1525.83 1074.52 Q1528.65 1071.98 1529.51 1066.53 Q1530.46 1061.16 1530.42 1049.15 Q1530.42 1037.47 1529.6 1032.79 Q1528.49 1027.34 1525.54 1025.17 Q1522.63 1022.96 1519.68 1022.96 Q1518.57 1022.96 1517.38 1023.28 Q1516.23 1023.61 1514.55 1024.55 Q1512.87 1025.5 1511.56 1027.83 Q1510.29 1030.17 1509.68 1033.69 Q1509.02 1038.24 1509.02 1049.15 Z" fill="#000000" fill-rule="evenodd" fill-opacity="1" /><path clip-path="url(#clip640)" d="M1544.89 1075.67 Q1543.62 1074.32 1543.62 1072.55 Q1543.62 1070.79 1544.89 1069.52 Q1546.16 1068.21 1548.09 1068.21 Q1549.93 1068.21 1551.16 1069.44 Q1552.43 1070.63 1552.43 1072.59 Q1552.43 1074.52 1551.08 1075.79 Q1549.77 1077.02 1548.09 1077.02 Q1546.16 1077.02 1544.89 1075.67 Z" fill="#000000" fill-rule="evenodd" fill-opacity="1" /><path clip-path="url(#clip640)" d="M1566.72 1050.17 Q1566.72 1037.83 1569.84 1031.11 Q1574.18 1021.11 1584.43 1021.11 Q1586.6 1021.11 1588.86 1021.73 Q1591.15 1022.3 1594.02 1024.55 Q1596.93 1026.81 1598.69 1030.5 Q1602.05 1037.63 1602.05 1050.17 Q1602.05 1062.43 1598.94 1069.11 Q1594.39 1078.86 1584.35 1078.86 Q1580.58 1078.86 1576.72 1076.94 Q1572.91 1075.01 1570.49 1070.38 Q1566.72 1063.45 1566.72 1050.17 M1573.69 1049.15 Q1573.69 1061.81 1574.59 1066.86 Q1575.62 1072.31 1578.4 1074.68 Q1581.23 1077.02 1584.35 1077.02 Q1587.71 1077.02 1590.49 1074.52 Q1593.32 1071.98 1594.18 1066.53 Q1595.13 1061.16 1595.09 1049.15 Q1595.09 1037.47 1594.27 1032.79 Q1593.16 1027.34 1590.21 1025.17 Q1587.3 1022.96 1584.35 1022.96 Q1583.24 1022.96 1582.05 1023.28 Q1580.9 1023.61 1579.22 1024.55 Q1577.54 1025.5 1576.23 1027.83 Q1574.96 1030.17 1574.35 1033.69 Q1573.69 1038.24 1573.69 1049.15 Z" fill="#000000" fill-rule="evenodd" fill-opacity="1" /><path clip-path="url(#clip640)" d="M1608.63 1063.49 Q1608.63 1060.99 1609.98 1060.05 Q1611.33 1059.07 1612.77 1059.07 Q1614.69 1059.07 1615.8 1060.3 Q1616.95 1061.49 1616.95 1063.17 Q1616.95 1064.85 1615.8 1066.08 Q1614.69 1067.26 1612.77 1067.26 Q1611.82 1067.26 1611.33 1067.1 Q1612.44 1070.95 1615.8 1073.74 Q1619.2 1076.53 1623.67 1076.53 Q1629.29 1076.53 1632.65 1071.08 Q1634.66 1067.55 1634.66 1059.56 Q1634.66 1052.51 1633.14 1048.98 Q1630.8 1043.61 1626.01 1043.61 Q1619.2 1043.61 1615.19 1049.48 Q1614.69 1050.21 1614.12 1050.25 Q1613.3 1050.25 1613.1 1049.8 Q1612.93 1049.31 1612.93 1048.04 L1612.93 1023.2 Q1612.93 1021.19 1613.75 1021.19 Q1614.08 1021.19 1614.78 1021.44 Q1620.06 1023.78 1625.92 1023.82 Q1631.95 1023.82 1637.36 1021.36 Q1637.77 1021.11 1638.02 1021.11 Q1638.84 1021.11 1638.88 1022.05 Q1638.88 1022.38 1638.18 1023.37 Q1637.52 1024.31 1636.09 1025.58 Q1634.66 1026.81 1632.81 1028 Q1630.97 1029.19 1628.26 1030.01 Q1625.6 1030.78 1622.65 1030.78 Q1619.12 1030.78 1615.51 1029.68 L1615.51 1046.03 Q1619.86 1041.77 1626.17 1041.77 Q1632.89 1041.77 1637.52 1047.18 Q1642.16 1052.59 1642.16 1060.13 Q1642.16 1068.04 1636.66 1073.45 Q1631.21 1078.86 1623.83 1078.86 Q1617.11 1078.86 1612.85 1074.07 Q1608.63 1069.27 1608.63 1063.49 Z" fill="#000000" fill-rule="evenodd" fill-opacity="1" /></svg>
